SplineFontDB: 3.0
FontName: 9-px
FullName: 9 px Regular
FamilyName: 9 px
Weight: Book
Copyright: Copyright bobtheo 2017
Version: 1.0
ItalicAngle: 0
UnderlinePosition: 307
UnderlineWidth: 204
Ascent: 3276
Descent: 820
InvalidEm: 0
sfntRevision: 0x00010000
LayerCount: 2
Layer: 0 1 "Back" 1
Layer: 1 1 "Fore" 0
XUID: [1021 618 671633155 3783314]
StyleMap: 0x0040
FSType: 4
OS2Version: 2
OS2_WeightWidthSlopeOnly: 0
OS2_UseTypoMetrics: 0
CreationTime: 1504405834
ModificationTime: 1504405834
PfmFamily: 81
TTFWeight: 400
TTFWidth: 5
LineGap: 0
VLineGap: 0
Panose: 0 0 4 0 0 0 0 0 0 0
OS2TypoAscent: 3276
OS2TypoAOffset: 0
OS2TypoDescent: -819
OS2TypoDOffset: 0
OS2TypoLinegap: 0
OS2WinAscent: 4915
OS2WinAOffset: 0
OS2WinDescent: 819
OS2WinDOffset: 0
HheadAscent: 4915
HheadAOffset: 0
HheadDescent: -819
HheadDOffset: 0
OS2SubXSize: 2048
OS2SubYSize: 2048
OS2SubXOff: 0
OS2SubYOff: -409
OS2SupXSize: 2048
OS2SupYSize: 2048
OS2SupXOff: 0
OS2SupYOff: 2048
OS2StrikeYSize: 204
OS2StrikeYPos: 819
OS2CapHeight: 3276
OS2XHeight: 2048
OS2Vendor: 'FSTR'
OS2CodePages: 000001fb.00000000
OS2UnicodeRanges: 80000007.00000002.00000000.00000000
DEI: 91125
ShortTable: maxp 16
  1
  0
  189
  56
  14
  0
  0
  2
  0
  0
  0
  0
  0
  0
  0
  0
EndShort
LangName: 1033 "" "" "Regular" "FontStruct 9 px" "" "Version 1.0" "" "FontStruct is a trademark of FSI FontShop International GmbH" "http://fontstruct.com/" "bobtheo" "+IBwA-9 px+IB0A was built with FontStruct+AAoA" "" "http://fontstruct.com/fontstructions/show/1432540/9-px" "FontStruct Non-Commercial License" "" "" "" "" "" "Five big quacking zephyrs jolt my wax bed"
Encoding: UnicodeBmp
UnicodeInterp: none
NameList: AGL For New Fonts
DisplaySize: -48
AntiAlias: 1
FitToEm: 0
WinInfo: 64 16 4
BeginChars: 65539 189

StartChar: .notdef
Encoding: 65536 -1 0
Width: 409
Flags: W
LayerCount: 2
Fore
SplineSet
1638 465 m 1,0,-1
 1638 986 l 1,1,-1
 1117 986 l 1,2,-1
 1117 465 l 1,3,-1
 1638 465 l 1,0,-1
2158 1074 m 1,4,-1
 2158 1595 l 1,5,-1
 1117 1595 l 1,6,-1
 1117 1074 l 1,7,-1
 2158 1074 l 1,4,-1
1638 1680 m 1,8,-1
 1638 2201 l 1,9,-1
 1117 2201 l 1,10,-1
 1117 1680 l 1,11,-1
 1638 1680 l 1,8,-1
2158 2289 m 1,12,-1
 2158 2807 l 1,13,-1
 1638 2807 l 2,14,15
 1421 2807 1421 2807 1271 2656 c 0,16,17
 1117 2502 1117 2502 1117 2289 c 1,18,-1
 2158 2289 l 1,12,-1
0 0 m 1,19,-1
 0 3276 l 1,20,-1
 3276 3276 l 1,21,-1
 3276 0 l 1,22,-1
 0 0 l 1,19,-1
EndSplineSet
EndChar

StartChar: exclam
Encoding: 33 33 4
Width: 819
Flags: W
LayerCount: 2
Fore
SplineSet
0 0 m 1,0,-1
 0 409 l 1,1,-1
 409 409 l 1,2,-1
 409 0 l 1,3,-1
 0 0 l 1,0,-1
0 819 m 1,4,-1
 0 3686 l 1,5,-1
 409 3686 l 1,6,-1
 409 819 l 1,7,-1
 0 819 l 1,4,-1
EndSplineSet
EndChar

StartChar: quotedbl
Encoding: 34 34 5
Width: 1638
Flags: W
LayerCount: 2
Fore
SplineSet
0 2457 m 1,0,-1
 0 3276 l 1,1,-1
 409 3276 l 1,2,-1
 409 2457 l 1,3,-1
 0 2457 l 1,0,-1
819 2457 m 1,4,-1
 819 3276 l 1,5,-1
 1228 3276 l 1,6,-1
 1228 2457 l 1,7,-1
 819 2457 l 1,4,-1
EndSplineSet
EndChar

StartChar: numbersign
Encoding: 35 35 6
Width: 2457
Flags: W
LayerCount: 2
Fore
SplineSet
1228 1228 m 1,0,-1
 1228 2048 l 1,1,-1
 819 2048 l 1,2,-1
 819 1228 l 1,3,-1
 1228 1228 l 1,0,-1
409 0 m 1,4,-1
 409 819 l 1,5,-1
 0 819 l 1,6,-1
 0 1228 l 1,7,-1
 409 1228 l 1,8,-1
 409 2048 l 1,9,-1
 0 2048 l 1,10,-1
 0 2457 l 1,11,-1
 409 2457 l 1,12,-1
 409 3276 l 1,13,-1
 819 3276 l 1,14,-1
 819 2457 l 1,15,-1
 1228 2457 l 1,16,-1
 1228 3276 l 1,17,-1
 1638 3276 l 1,18,-1
 1638 2457 l 1,19,-1
 2048 2457 l 1,20,-1
 2048 2048 l 1,21,-1
 1638 2048 l 1,22,-1
 1638 1228 l 1,23,-1
 2048 1228 l 1,24,-1
 2048 819 l 1,25,-1
 1638 819 l 1,26,-1
 1638 0 l 1,27,-1
 1228 0 l 1,28,-1
 1228 819 l 1,29,-1
 819 819 l 1,30,-1
 819 0 l 1,31,-1
 409 0 l 1,4,-1
EndSplineSet
EndChar

StartChar: dollar
Encoding: 36 36 7
Width: 2457
Flags: W
LayerCount: 2
Fore
SplineSet
0 819 m 1,0,-1
 0 1228 l 1,1,-1
 409 1228 l 1,2,-1
 409 819 l 1,3,-1
 0 819 l 1,0,-1
1638 819 m 1,4,-1
 1638 1638 l 1,5,-1
 2048 1638 l 1,6,-1
 2048 819 l 1,7,-1
 1638 819 l 1,4,-1
0 2048 m 1,8,-1
 0 2867 l 1,9,-1
 409 2867 l 1,10,-1
 409 2048 l 1,11,-1
 0 2048 l 1,8,-1
1638 2457 m 1,12,-1
 1638 2867 l 1,13,-1
 2048 2867 l 1,14,-1
 2048 2457 l 1,15,-1
 1638 2457 l 1,12,-1
819 0 m 1,16,-1
 819 409 l 1,17,-1
 409 409 l 1,18,-1
 409 819 l 1,19,-1
 819 819 l 1,20,-1
 819 1638 l 1,21,-1
 409 1638 l 1,22,-1
 409 2048 l 1,23,-1
 819 2048 l 1,24,-1
 819 2867 l 1,25,-1
 409 2867 l 1,26,-1
 409 3276 l 1,27,-1
 819 3276 l 1,28,-1
 819 3686 l 1,29,-1
 1228 3686 l 1,30,-1
 1228 3276 l 1,31,-1
 1638 3276 l 1,32,-1
 1638 2867 l 1,33,-1
 1228 2867 l 1,34,-1
 1228 2048 l 1,35,-1
 1638 2048 l 1,36,-1
 1638 1638 l 1,37,-1
 1228 1638 l 1,38,-1
 1228 819 l 1,39,-1
 1638 819 l 1,40,-1
 1638 409 l 1,41,-1
 1228 409 l 1,42,-1
 1228 0 l 1,43,-1
 819 0 l 1,16,-1
EndSplineSet
EndChar

StartChar: percent
Encoding: 37 37 8
Width: 3276
Flags: W
LayerCount: 2
Fore
SplineSet
409 0 m 1,0,-1
 409 819 l 1,1,-1
 819 819 l 1,2,-1
 819 0 l 1,3,-1
 409 0 l 1,0,-1
2457 409 m 1,4,-1
 2457 1228 l 1,5,-1
 2048 1228 l 1,6,-1
 2048 409 l 1,7,-1
 2457 409 l 1,4,-1
819 819 m 1,8,-1
 819 1638 l 1,9,-1
 1228 1638 l 1,10,-1
 1228 819 l 1,11,-1
 819 819 l 1,8,-1
1638 0 m 1,12,-1
 1638 1638 l 1,13,-1
 2867 1638 l 1,14,-1
 2867 0 l 1,15,-1
 1638 0 l 1,12,-1
1228 1638 m 1,16,-1
 1228 2457 l 1,17,-1
 1638 2457 l 1,18,-1
 1638 1638 l 1,19,-1
 1228 1638 l 1,16,-1
1638 2457 m 1,20,-1
 1638 3276 l 1,21,-1
 2048 3276 l 1,22,-1
 2048 2457 l 1,23,-1
 1638 2457 l 1,20,-1
819 2867 m 1,24,-1
 819 3686 l 1,25,-1
 409 3686 l 1,26,-1
 409 2867 l 1,27,-1
 819 2867 l 1,24,-1
0 2457 m 1,28,-1
 0 4096 l 1,29,-1
 1228 4096 l 1,30,-1
 1228 2457 l 1,31,-1
 0 2457 l 1,28,-1
2048 3276 m 1,32,-1
 2048 4096 l 1,33,-1
 2457 4096 l 1,34,-1
 2457 3276 l 1,35,-1
 2048 3276 l 1,32,-1
EndSplineSet
EndChar

StartChar: ampersand
Encoding: 38 38 9
Width: 2457
Flags: W
LayerCount: 2
Fore
SplineSet
819 0 m 1,0,-1
 819 409 l 1,1,-1
 409 409 l 1,2,-1
 409 819 l 1,3,-1
 0 819 l 1,4,-1
 0 1228 l 1,5,-1
 819 1228 l 1,6,-1
 819 2867 l 1,7,-1
 1228 2867 l 1,8,-1
 1228 1228 l 1,9,-1
 2048 1228 l 1,10,-1
 2048 819 l 1,11,-1
 1638 819 l 1,12,-1
 1638 409 l 1,13,-1
 1228 409 l 1,14,-1
 1228 0 l 1,15,-1
 819 0 l 1,0,-1
EndSplineSet
EndChar

StartChar: quotesingle
Encoding: 39 39 10
Width: 1228
Flags: W
LayerCount: 2
Fore
SplineSet
0 2048 m 1,0,-1
 0 2457 l 1,1,-1
 409 2457 l 1,2,-1
 409 2048 l 1,3,-1
 0 2048 l 1,0,-1
409 2457 m 1,4,-1
 409 3276 l 1,5,-1
 819 3276 l 1,6,-1
 819 2457 l 1,7,-1
 409 2457 l 1,4,-1
EndSplineSet
EndChar

StartChar: parenleft
Encoding: 40 40 11
Width: 1638
Flags: W
LayerCount: 2
Fore
SplineSet
819 0 m 1,0,-1
 819 409 l 1,1,-1
 1228 409 l 1,2,-1
 1228 0 l 1,3,-1
 819 0 l 1,0,-1
409 409 m 1,4,-1
 409 1228 l 1,5,-1
 819 1228 l 1,6,-1
 819 409 l 1,7,-1
 409 409 l 1,4,-1
0 1228 m 1,8,-1
 0 2867 l 1,9,-1
 409 2867 l 1,10,-1
 409 1228 l 1,11,-1
 0 1228 l 1,8,-1
409 2867 m 1,12,-1
 409 3686 l 1,13,-1
 819 3686 l 1,14,-1
 819 2867 l 1,15,-1
 409 2867 l 1,12,-1
819 3686 m 1,16,-1
 819 4096 l 1,17,-1
 1228 4096 l 1,18,-1
 1228 3686 l 1,19,-1
 819 3686 l 1,16,-1
EndSplineSet
EndChar

StartChar: parenright
Encoding: 41 41 12
Width: 1638
Flags: W
LayerCount: 2
Fore
SplineSet
0 0 m 1,0,-1
 0 409 l 1,1,-1
 409 409 l 1,2,-1
 409 0 l 1,3,-1
 0 0 l 1,0,-1
409 409 m 1,4,-1
 409 1228 l 1,5,-1
 819 1228 l 1,6,-1
 819 409 l 1,7,-1
 409 409 l 1,4,-1
819 1228 m 1,8,-1
 819 2867 l 1,9,-1
 1228 2867 l 1,10,-1
 1228 1228 l 1,11,-1
 819 1228 l 1,8,-1
409 2867 m 1,12,-1
 409 3686 l 1,13,-1
 819 3686 l 1,14,-1
 819 2867 l 1,15,-1
 409 2867 l 1,12,-1
0 3686 m 1,16,-1
 0 4096 l 1,17,-1
 409 4096 l 1,18,-1
 409 3686 l 1,19,-1
 0 3686 l 1,16,-1
EndSplineSet
EndChar

StartChar: asterisk
Encoding: 42 42 13
Width: 1638
Flags: W
LayerCount: 2
Fore
SplineSet
409 2048 m 1,0,-1
 409 2457 l 1,1,-1
 0 2457 l 1,2,-1
 0 2867 l 1,3,-1
 409 2867 l 1,4,-1
 409 3276 l 1,5,-1
 819 3276 l 1,6,-1
 819 2867 l 1,7,-1
 1228 2867 l 1,8,-1
 1228 2457 l 1,9,-1
 819 2457 l 1,10,-1
 819 2048 l 1,11,-1
 409 2048 l 1,0,-1
EndSplineSet
EndChar

StartChar: plus
Encoding: 43 43 14
Width: 2457
Flags: W
LayerCount: 2
Fore
SplineSet
819 819 m 1,0,-1
 819 1638 l 1,1,-1
 0 1638 l 1,2,-1
 0 2048 l 1,3,-1
 819 2048 l 1,4,-1
 819 2867 l 1,5,-1
 1228 2867 l 1,6,-1
 1228 2048 l 1,7,-1
 2048 2048 l 1,8,-1
 2048 1638 l 1,9,-1
 1228 1638 l 1,10,-1
 1228 819 l 1,11,-1
 819 819 l 1,0,-1
EndSplineSet
EndChar

StartChar: comma
Encoding: 44 44 15
Width: 1228
Flags: W
LayerCount: 2
Fore
SplineSet
0 -819 m 1,0,-1
 0 -409 l 1,1,-1
 409 -409 l 1,2,-1
 409 -819 l 1,3,-1
 0 -819 l 1,0,-1
409 -409 m 1,4,-1
 409 0 l 1,5,-1
 0 0 l 1,6,-1
 0 819 l 1,7,-1
 819 819 l 1,8,-1
 819 -409 l 1,9,-1
 409 -409 l 1,4,-1
EndSplineSet
EndChar

StartChar: hyphen
Encoding: 45 45 16
Width: 2457
Flags: W
LayerCount: 2
Fore
SplineSet
0 1638 m 1,0,-1
 0 2048 l 1,1,-1
 2048 2048 l 1,2,-1
 2048 1638 l 1,3,-1
 0 1638 l 1,0,-1
EndSplineSet
EndChar

StartChar: period
Encoding: 46 46 17
Width: 1228
Flags: W
LayerCount: 2
Fore
SplineSet
0 0 m 1,0,-1
 0 819 l 1,1,-1
 819 819 l 1,2,-1
 819 0 l 1,3,-1
 0 0 l 1,0,-1
EndSplineSet
EndChar

StartChar: slash
Encoding: 47 47 18
Width: 2457
Flags: W
LayerCount: 2
Fore
SplineSet
0 0 m 1,0,-1
 0 819 l 1,1,-1
 409 819 l 1,2,-1
 409 0 l 1,3,-1
 0 0 l 1,0,-1
409 819 m 1,4,-1
 409 1638 l 1,5,-1
 819 1638 l 1,6,-1
 819 819 l 1,7,-1
 409 819 l 1,4,-1
819 1638 m 1,8,-1
 819 2457 l 1,9,-1
 1228 2457 l 1,10,-1
 1228 1638 l 1,11,-1
 819 1638 l 1,8,-1
1228 2457 m 1,12,-1
 1228 3276 l 1,13,-1
 1638 3276 l 1,14,-1
 1638 2457 l 1,15,-1
 1228 2457 l 1,12,-1
1638 3276 m 1,16,-1
 1638 4096 l 1,17,-1
 2048 4096 l 1,18,-1
 2048 3276 l 1,19,-1
 1638 3276 l 1,16,-1
EndSplineSet
EndChar

StartChar: zero
Encoding: 48 48 19
Width: 2457
Flags: W
LayerCount: 2
Fore
SplineSet
409 0 m 1,0,-1
 409 409 l 1,1,-1
 1638 409 l 1,2,-1
 1638 0 l 1,3,-1
 409 0 l 1,0,-1
0 409 m 1,4,-1
 0 3276 l 1,5,-1
 409 3276 l 1,6,-1
 409 409 l 1,7,-1
 0 409 l 1,4,-1
1638 409 m 1,8,-1
 1638 3276 l 1,9,-1
 2048 3276 l 1,10,-1
 2048 409 l 1,11,-1
 1638 409 l 1,8,-1
409 3276 m 1,12,-1
 409 3686 l 1,13,-1
 1638 3686 l 1,14,-1
 1638 3276 l 1,15,-1
 409 3276 l 1,12,-1
EndSplineSet
EndChar

StartChar: one
Encoding: 49 49 20
Width: 1638
Flags: W
LayerCount: 2
Fore
SplineSet
0 0 m 1,0,-1
 0 409 l 1,1,-1
 409 409 l 1,2,-1
 409 2867 l 1,3,-1
 0 2867 l 1,4,-1
 0 3276 l 1,5,-1
 409 3276 l 1,6,-1
 409 3686 l 1,7,-1
 819 3686 l 1,8,-1
 819 409 l 1,9,-1
 1228 409 l 1,10,-1
 1228 0 l 1,11,-1
 0 0 l 1,0,-1
EndSplineSet
EndChar

StartChar: two
Encoding: 50 50 21
Width: 2457
Flags: W
LayerCount: 2
Fore
SplineSet
0 0 m 1,0,-1
 0 819 l 1,1,-1
 409 819 l 1,2,-1
 409 409 l 1,3,-1
 2048 409 l 1,4,-1
 2048 0 l 1,5,-1
 0 0 l 1,0,-1
409 819 m 1,6,-1
 409 1228 l 1,7,-1
 819 1228 l 1,8,-1
 819 819 l 1,9,-1
 409 819 l 1,6,-1
819 1228 m 1,10,-1
 819 1638 l 1,11,-1
 1228 1638 l 1,12,-1
 1228 1228 l 1,13,-1
 819 1228 l 1,10,-1
1228 1638 m 1,14,-1
 1228 2048 l 1,15,-1
 1638 2048 l 1,16,-1
 1638 1638 l 1,17,-1
 1228 1638 l 1,14,-1
0 2457 m 1,18,-1
 0 3276 l 1,19,-1
 409 3276 l 1,20,-1
 409 2457 l 1,21,-1
 0 2457 l 1,18,-1
1638 2048 m 1,22,-1
 1638 3276 l 1,23,-1
 2048 3276 l 1,24,-1
 2048 2048 l 1,25,-1
 1638 2048 l 1,22,-1
409 3276 m 1,26,-1
 409 3686 l 1,27,-1
 1638 3686 l 1,28,-1
 1638 3276 l 1,29,-1
 409 3276 l 1,26,-1
EndSplineSet
EndChar

StartChar: three
Encoding: 51 51 22
Width: 2457
Flags: W
LayerCount: 2
Fore
SplineSet
409 0 m 1,0,-1
 409 409 l 1,1,-1
 1638 409 l 1,2,-1
 1638 0 l 1,3,-1
 409 0 l 1,0,-1
0 409 m 1,4,-1
 0 819 l 1,5,-1
 409 819 l 1,6,-1
 409 409 l 1,7,-1
 0 409 l 1,4,-1
1638 409 m 1,8,-1
 1638 1638 l 1,9,-1
 2048 1638 l 1,10,-1
 2048 409 l 1,11,-1
 1638 409 l 1,8,-1
819 1638 m 1,12,-1
 819 2048 l 1,13,-1
 1638 2048 l 1,14,-1
 1638 1638 l 1,15,-1
 819 1638 l 1,12,-1
0 2867 m 1,16,-1
 0 3276 l 1,17,-1
 409 3276 l 1,18,-1
 409 2867 l 1,19,-1
 0 2867 l 1,16,-1
1638 2048 m 1,20,-1
 1638 3276 l 1,21,-1
 2048 3276 l 1,22,-1
 2048 2048 l 1,23,-1
 1638 2048 l 1,20,-1
409 3276 m 1,24,-1
 409 3686 l 1,25,-1
 1638 3686 l 1,26,-1
 1638 3276 l 1,27,-1
 409 3276 l 1,24,-1
EndSplineSet
EndChar

StartChar: four
Encoding: 52 52 23
Width: 2457
Flags: W
LayerCount: 2
Fore
SplineSet
1228 0 m 1,0,-1
 1228 1638 l 1,1,-1
 0 1638 l 1,2,-1
 0 3686 l 1,3,-1
 409 3686 l 1,4,-1
 409 2048 l 1,5,-1
 1228 2048 l 1,6,-1
 1228 3686 l 1,7,-1
 1638 3686 l 1,8,-1
 1638 2048 l 1,9,-1
 2048 2048 l 1,10,-1
 2048 1638 l 1,11,-1
 1638 1638 l 1,12,-1
 1638 0 l 1,13,-1
 1228 0 l 1,0,-1
EndSplineSet
EndChar

StartChar: five
Encoding: 53 53 24
Width: 2457
Flags: W
LayerCount: 2
Fore
SplineSet
409 0 m 1,0,-1
 409 409 l 1,1,-1
 1638 409 l 1,2,-1
 1638 0 l 1,3,-1
 409 0 l 1,0,-1
0 409 m 1,4,-1
 0 819 l 1,5,-1
 409 819 l 1,6,-1
 409 409 l 1,7,-1
 0 409 l 1,4,-1
1638 409 m 1,8,-1
 1638 1638 l 1,9,-1
 2048 1638 l 1,10,-1
 2048 409 l 1,11,-1
 1638 409 l 1,8,-1
409 1638 m 1,12,-1
 409 2048 l 1,13,-1
 1638 2048 l 1,14,-1
 1638 1638 l 1,15,-1
 409 1638 l 1,12,-1
0 2048 m 1,16,-1
 0 3686 l 1,17,-1
 2048 3686 l 1,18,-1
 2048 3276 l 1,19,-1
 409 3276 l 1,20,-1
 409 2048 l 1,21,-1
 0 2048 l 1,16,-1
EndSplineSet
EndChar

StartChar: six
Encoding: 54 54 25
Width: 2457
Flags: W
LayerCount: 2
Fore
SplineSet
409 0 m 1,0,-1
 409 409 l 1,1,-1
 1638 409 l 1,2,-1
 1638 0 l 1,3,-1
 409 0 l 1,0,-1
1638 409 m 1,4,-1
 1638 1638 l 1,5,-1
 2048 1638 l 1,6,-1
 2048 409 l 1,7,-1
 1638 409 l 1,4,-1
0 409 m 1,8,-1
 0 3276 l 1,9,-1
 409 3276 l 1,10,-1
 409 2048 l 1,11,-1
 1638 2048 l 1,12,-1
 1638 1638 l 1,13,-1
 409 1638 l 1,14,-1
 409 409 l 1,15,-1
 0 409 l 1,8,-1
1638 2867 m 1,16,-1
 1638 3276 l 1,17,-1
 2048 3276 l 1,18,-1
 2048 2867 l 1,19,-1
 1638 2867 l 1,16,-1
409 3276 m 1,20,-1
 409 3686 l 1,21,-1
 1638 3686 l 1,22,-1
 1638 3276 l 1,23,-1
 409 3276 l 1,20,-1
EndSplineSet
EndChar

StartChar: seven
Encoding: 55 55 26
Width: 2457
Flags: W
LayerCount: 2
Fore
SplineSet
819 0 m 1,0,-1
 819 1638 l 1,1,-1
 1228 1638 l 1,2,-1
 1228 0 l 1,3,-1
 819 0 l 1,0,-1
1228 1638 m 1,4,-1
 1228 2457 l 1,5,-1
 1638 2457 l 1,6,-1
 1638 1638 l 1,7,-1
 1228 1638 l 1,4,-1
1638 2457 m 1,8,-1
 1638 3276 l 1,9,-1
 0 3276 l 1,10,-1
 0 3686 l 1,11,-1
 2048 3686 l 1,12,-1
 2048 2457 l 1,13,-1
 1638 2457 l 1,8,-1
EndSplineSet
EndChar

StartChar: eight
Encoding: 56 56 27
Width: 2457
Flags: W
LayerCount: 2
Fore
SplineSet
409 0 m 1,0,-1
 409 409 l 1,1,-1
 1638 409 l 1,2,-1
 1638 0 l 1,3,-1
 409 0 l 1,0,-1
0 409 m 1,4,-1
 0 1638 l 1,5,-1
 409 1638 l 1,6,-1
 409 409 l 1,7,-1
 0 409 l 1,4,-1
1638 409 m 1,8,-1
 1638 1638 l 1,9,-1
 2048 1638 l 1,10,-1
 2048 409 l 1,11,-1
 1638 409 l 1,8,-1
409 1638 m 1,12,-1
 409 2048 l 1,13,-1
 1638 2048 l 1,14,-1
 1638 1638 l 1,15,-1
 409 1638 l 1,12,-1
0 2048 m 1,16,-1
 0 3276 l 1,17,-1
 409 3276 l 1,18,-1
 409 2048 l 1,19,-1
 0 2048 l 1,16,-1
1638 2048 m 1,20,-1
 1638 3276 l 1,21,-1
 2048 3276 l 1,22,-1
 2048 2048 l 1,23,-1
 1638 2048 l 1,20,-1
409 3276 m 1,24,-1
 409 3686 l 1,25,-1
 1638 3686 l 1,26,-1
 1638 3276 l 1,27,-1
 409 3276 l 1,24,-1
EndSplineSet
EndChar

StartChar: nine
Encoding: 57 57 28
Width: 2457
Flags: W
LayerCount: 2
Fore
SplineSet
409 0 m 1,0,-1
 409 409 l 1,1,-1
 1638 409 l 1,2,-1
 1638 0 l 1,3,-1
 409 0 l 1,0,-1
0 409 m 1,4,-1
 0 819 l 1,5,-1
 409 819 l 1,6,-1
 409 409 l 1,7,-1
 0 409 l 1,4,-1
0 2048 m 1,8,-1
 0 3276 l 1,9,-1
 409 3276 l 1,10,-1
 409 2048 l 1,11,-1
 0 2048 l 1,8,-1
1638 409 m 1,12,-1
 1638 1638 l 1,13,-1
 409 1638 l 1,14,-1
 409 2048 l 1,15,-1
 1638 2048 l 1,16,-1
 1638 3276 l 1,17,-1
 2048 3276 l 1,18,-1
 2048 409 l 1,19,-1
 1638 409 l 1,12,-1
409 3276 m 1,20,-1
 409 3686 l 1,21,-1
 1638 3686 l 1,22,-1
 1638 3276 l 1,23,-1
 409 3276 l 1,20,-1
EndSplineSet
EndChar

StartChar: colon
Encoding: 58 58 29
Width: 1228
Flags: W
LayerCount: 2
Fore
SplineSet
0 819 m 1,0,-1
 0 1638 l 1,1,-1
 819 1638 l 1,2,-1
 819 819 l 1,3,-1
 0 819 l 1,0,-1
0 2457 m 1,4,-1
 0 3276 l 1,5,-1
 819 3276 l 1,6,-1
 819 2457 l 1,7,-1
 0 2457 l 1,4,-1
EndSplineSet
EndChar

StartChar: semicolon
Encoding: 59 59 30
Width: 1228
Flags: W
LayerCount: 2
Fore
SplineSet
0 0 m 1,0,-1
 0 409 l 1,1,-1
 409 409 l 1,2,-1
 409 0 l 1,3,-1
 0 0 l 1,0,-1
409 409 m 1,4,-1
 409 819 l 1,5,-1
 0 819 l 1,6,-1
 0 1638 l 1,7,-1
 819 1638 l 1,8,-1
 819 409 l 1,9,-1
 409 409 l 1,4,-1
0 2457 m 1,10,-1
 0 3276 l 1,11,-1
 819 3276 l 1,12,-1
 819 2457 l 1,13,-1
 0 2457 l 1,10,-1
EndSplineSet
EndChar

StartChar: less
Encoding: 60 60 31
Width: 2048
Flags: W
LayerCount: 2
Fore
SplineSet
1228 409 m 1,0,-1
 1228 819 l 1,1,-1
 1638 819 l 1,2,-1
 1638 409 l 1,3,-1
 1228 409 l 1,0,-1
819 819 m 1,4,-1
 819 1228 l 1,5,-1
 1228 1228 l 1,6,-1
 1228 819 l 1,7,-1
 819 819 l 1,4,-1
409 1228 m 1,8,-1
 409 1638 l 1,9,-1
 819 1638 l 1,10,-1
 819 1228 l 1,11,-1
 409 1228 l 1,8,-1
0 1638 m 1,12,-1
 0 2048 l 1,13,-1
 409 2048 l 1,14,-1
 409 1638 l 1,15,-1
 0 1638 l 1,12,-1
409 2048 m 1,16,-1
 409 2457 l 1,17,-1
 819 2457 l 1,18,-1
 819 2048 l 1,19,-1
 409 2048 l 1,16,-1
819 2457 m 1,20,-1
 819 2867 l 1,21,-1
 1228 2867 l 1,22,-1
 1228 2457 l 1,23,-1
 819 2457 l 1,20,-1
1228 2867 m 1,24,-1
 1228 3276 l 1,25,-1
 1638 3276 l 1,26,-1
 1638 2867 l 1,27,-1
 1228 2867 l 1,24,-1
EndSplineSet
EndChar

StartChar: equal
Encoding: 61 61 32
Width: 2457
Flags: W
LayerCount: 2
Fore
SplineSet
0 1228 m 1,0,-1
 0 1638 l 1,1,-1
 2048 1638 l 1,2,-1
 2048 1228 l 1,3,-1
 0 1228 l 1,0,-1
0 2048 m 1,4,-1
 0 2457 l 1,5,-1
 2048 2457 l 1,6,-1
 2048 2048 l 1,7,-1
 0 2048 l 1,4,-1
EndSplineSet
EndChar

StartChar: greater
Encoding: 62 62 33
Width: 2048
Flags: W
LayerCount: 2
Fore
SplineSet
0 409 m 1,0,-1
 0 819 l 1,1,-1
 409 819 l 1,2,-1
 409 409 l 1,3,-1
 0 409 l 1,0,-1
409 819 m 1,4,-1
 409 1228 l 1,5,-1
 819 1228 l 1,6,-1
 819 819 l 1,7,-1
 409 819 l 1,4,-1
819 1228 m 1,8,-1
 819 1638 l 1,9,-1
 1228 1638 l 1,10,-1
 1228 1228 l 1,11,-1
 819 1228 l 1,8,-1
1228 1638 m 1,12,-1
 1228 2048 l 1,13,-1
 1638 2048 l 1,14,-1
 1638 1638 l 1,15,-1
 1228 1638 l 1,12,-1
819 2048 m 1,16,-1
 819 2457 l 1,17,-1
 1228 2457 l 1,18,-1
 1228 2048 l 1,19,-1
 819 2048 l 1,16,-1
409 2457 m 1,20,-1
 409 2867 l 1,21,-1
 819 2867 l 1,22,-1
 819 2457 l 1,23,-1
 409 2457 l 1,20,-1
0 2867 m 1,24,-1
 0 3276 l 1,25,-1
 409 3276 l 1,26,-1
 409 2867 l 1,27,-1
 0 2867 l 1,24,-1
EndSplineSet
EndChar

StartChar: question
Encoding: 63 63 34
Width: 2457
Flags: W
LayerCount: 2
Fore
SplineSet
819 0 m 1,0,-1
 819 409 l 1,1,-1
 1228 409 l 1,2,-1
 1228 0 l 1,3,-1
 819 0 l 1,0,-1
819 819 m 1,4,-1
 819 1638 l 1,5,-1
 1228 1638 l 1,6,-1
 1228 819 l 1,7,-1
 819 819 l 1,4,-1
1228 1638 m 1,8,-1
 1228 2048 l 1,9,-1
 1638 2048 l 1,10,-1
 1638 1638 l 1,11,-1
 1228 1638 l 1,8,-1
0 2048 m 1,12,-1
 0 3276 l 1,13,-1
 409 3276 l 1,14,-1
 409 2048 l 1,15,-1
 0 2048 l 1,12,-1
1638 2048 m 1,16,-1
 1638 3276 l 1,17,-1
 2048 3276 l 1,18,-1
 2048 2048 l 1,19,-1
 1638 2048 l 1,16,-1
409 3276 m 1,20,-1
 409 3686 l 1,21,-1
 1638 3686 l 1,22,-1
 1638 3276 l 1,23,-1
 409 3276 l 1,20,-1
EndSplineSet
EndChar

StartChar: at
Encoding: 64 64 35
Width: 2457
Flags: W
LayerCount: 2
Fore
SplineSet
819 0 m 1,0,-1
 819 1638 l 1,1,-1
 0 1638 l 1,2,-1
 0 2048 l 1,3,-1
 409 2048 l 1,4,-1
 409 2457 l 1,5,-1
 819 2457 l 1,6,-1
 819 2867 l 1,7,-1
 1228 2867 l 1,8,-1
 1228 2457 l 1,9,-1
 1638 2457 l 1,10,-1
 1638 2048 l 1,11,-1
 2048 2048 l 1,12,-1
 2048 1638 l 1,13,-1
 1228 1638 l 1,14,-1
 1228 0 l 1,15,-1
 819 0 l 1,0,-1
EndSplineSet
EndChar

StartChar: A
Encoding: 65 65 36
Width: 2457
Flags: W
LayerCount: 2
Fore
SplineSet
0 0 m 1,0,-1
 0 2867 l 1,1,-1
 409 2867 l 1,2,-1
 409 1638 l 1,3,-1
 1638 1638 l 1,4,-1
 1638 2867 l 1,5,-1
 2048 2867 l 1,6,-1
 2048 0 l 1,7,-1
 1638 0 l 1,8,-1
 1638 1228 l 1,9,-1
 409 1228 l 1,10,-1
 409 0 l 1,11,-1
 0 0 l 1,0,-1
409 2867 m 1,12,-1
 409 3276 l 1,13,-1
 1638 3276 l 1,14,-1
 1638 2867 l 1,15,-1
 409 2867 l 1,12,-1
EndSplineSet
EndChar

StartChar: B
Encoding: 66 66 37
Width: 2457
Flags: W
LayerCount: 2
Fore
SplineSet
1638 409 m 1,0,-1
 1638 1638 l 1,1,-1
 2048 1638 l 1,2,-1
 2048 409 l 1,3,-1
 1638 409 l 1,0,-1
1638 2048 m 1,4,-1
 1638 2867 l 1,5,-1
 2048 2867 l 1,6,-1
 2048 2048 l 1,7,-1
 1638 2048 l 1,4,-1
0 0 m 1,8,-1
 0 3276 l 1,9,-1
 1638 3276 l 1,10,-1
 1638 2867 l 1,11,-1
 409 2867 l 1,12,-1
 409 2048 l 1,13,-1
 1638 2048 l 1,14,-1
 1638 1638 l 1,15,-1
 409 1638 l 1,16,-1
 409 409 l 1,17,-1
 1638 409 l 1,18,-1
 1638 0 l 1,19,-1
 0 0 l 1,8,-1
EndSplineSet
EndChar

StartChar: C
Encoding: 67 67 38
Width: 2457
Flags: W
LayerCount: 2
Fore
SplineSet
409 0 m 1,0,-1
 409 409 l 1,1,-1
 1638 409 l 1,2,-1
 1638 0 l 1,3,-1
 409 0 l 1,0,-1
1638 409 m 1,4,-1
 1638 819 l 1,5,-1
 2048 819 l 1,6,-1
 2048 409 l 1,7,-1
 1638 409 l 1,4,-1
0 409 m 1,8,-1
 0 2867 l 1,9,-1
 409 2867 l 1,10,-1
 409 409 l 1,11,-1
 0 409 l 1,8,-1
1638 2457 m 1,12,-1
 1638 2867 l 1,13,-1
 2048 2867 l 1,14,-1
 2048 2457 l 1,15,-1
 1638 2457 l 1,12,-1
409 2867 m 1,16,-1
 409 3276 l 1,17,-1
 1638 3276 l 1,18,-1
 1638 2867 l 1,19,-1
 409 2867 l 1,16,-1
EndSplineSet
EndChar

StartChar: D
Encoding: 68 68 39
Width: 2457
Flags: W
LayerCount: 2
Fore
SplineSet
1638 409 m 1,0,-1
 1638 2867 l 1,1,-1
 2048 2867 l 1,2,-1
 2048 409 l 1,3,-1
 1638 409 l 1,0,-1
0 0 m 1,4,-1
 0 3276 l 1,5,-1
 1638 3276 l 1,6,-1
 1638 2867 l 1,7,-1
 409 2867 l 1,8,-1
 409 409 l 1,9,-1
 1638 409 l 1,10,-1
 1638 0 l 1,11,-1
 0 0 l 1,4,-1
EndSplineSet
EndChar

StartChar: E
Encoding: 69 69 40
Width: 2457
Flags: W
LayerCount: 2
Fore
SplineSet
0 0 m 1,0,-1
 0 3276 l 1,1,-1
 2048 3276 l 1,2,-1
 2048 2867 l 1,3,-1
 409 2867 l 1,4,-1
 409 2048 l 1,5,-1
 1638 2048 l 1,6,-1
 1638 1638 l 1,7,-1
 409 1638 l 1,8,-1
 409 409 l 1,9,-1
 2048 409 l 1,10,-1
 2048 0 l 1,11,-1
 0 0 l 1,0,-1
EndSplineSet
EndChar

StartChar: F
Encoding: 70 70 41
Width: 2457
Flags: W
LayerCount: 2
Fore
SplineSet
0 0 m 1,0,-1
 0 3276 l 1,1,-1
 2048 3276 l 1,2,-1
 2048 2867 l 1,3,-1
 409 2867 l 1,4,-1
 409 2048 l 1,5,-1
 1638 2048 l 1,6,-1
 1638 1638 l 1,7,-1
 409 1638 l 1,8,-1
 409 0 l 1,9,-1
 0 0 l 1,0,-1
EndSplineSet
EndChar

StartChar: G
Encoding: 71 71 42
Width: 2457
Flags: W
LayerCount: 2
Fore
SplineSet
409 0 m 1,0,-1
 409 409 l 1,1,-1
 1638 409 l 1,2,-1
 1638 0 l 1,3,-1
 409 0 l 1,0,-1
1638 409 m 1,4,-1
 1638 1228 l 1,5,-1
 1228 1228 l 1,6,-1
 1228 1638 l 1,7,-1
 2048 1638 l 1,8,-1
 2048 409 l 1,9,-1
 1638 409 l 1,4,-1
0 409 m 1,10,-1
 0 2867 l 1,11,-1
 409 2867 l 1,12,-1
 409 409 l 1,13,-1
 0 409 l 1,10,-1
1638 2457 m 1,14,-1
 1638 2867 l 1,15,-1
 2048 2867 l 1,16,-1
 2048 2457 l 1,17,-1
 1638 2457 l 1,14,-1
409 2867 m 1,18,-1
 409 3276 l 1,19,-1
 1638 3276 l 1,20,-1
 1638 2867 l 1,21,-1
 409 2867 l 1,18,-1
EndSplineSet
EndChar

StartChar: H
Encoding: 72 72 43
Width: 2457
Flags: W
LayerCount: 2
Fore
SplineSet
0 0 m 1,0,-1
 0 3276 l 1,1,-1
 409 3276 l 1,2,-1
 409 2048 l 1,3,-1
 1638 2048 l 1,4,-1
 1638 3276 l 1,5,-1
 2048 3276 l 1,6,-1
 2048 0 l 1,7,-1
 1638 0 l 1,8,-1
 1638 1638 l 1,9,-1
 409 1638 l 1,10,-1
 409 0 l 1,11,-1
 0 0 l 1,0,-1
EndSplineSet
EndChar

StartChar: I
Encoding: 73 73 44
Width: 2457
Flags: W
LayerCount: 2
Fore
SplineSet
0 0 m 1,0,-1
 0 409 l 1,1,-1
 819 409 l 1,2,-1
 819 2867 l 1,3,-1
 0 2867 l 1,4,-1
 0 3276 l 1,5,-1
 2048 3276 l 1,6,-1
 2048 2867 l 1,7,-1
 1228 2867 l 1,8,-1
 1228 409 l 1,9,-1
 2048 409 l 1,10,-1
 2048 0 l 1,11,-1
 0 0 l 1,0,-1
EndSplineSet
EndChar

StartChar: J
Encoding: 74 74 45
Width: 2457
Flags: W
LayerCount: 2
Fore
SplineSet
409 0 m 1,0,-1
 409 409 l 1,1,-1
 1638 409 l 1,2,-1
 1638 0 l 1,3,-1
 409 0 l 1,0,-1
0 409 m 1,4,-1
 0 1228 l 1,5,-1
 409 1228 l 1,6,-1
 409 409 l 1,7,-1
 0 409 l 1,4,-1
1638 409 m 1,8,-1
 1638 2867 l 1,9,-1
 409 2867 l 1,10,-1
 409 3276 l 1,11,-1
 2048 3276 l 1,12,-1
 2048 409 l 1,13,-1
 1638 409 l 1,8,-1
EndSplineSet
EndChar

StartChar: K
Encoding: 75 75 46
Width: 2457
Flags: W
LayerCount: 2
Fore
SplineSet
1638 0 m 1,0,-1
 1638 819 l 1,1,-1
 2048 819 l 1,2,-1
 2048 0 l 1,3,-1
 1638 0 l 1,0,-1
1228 819 m 1,4,-1
 1228 1228 l 1,5,-1
 1638 1228 l 1,6,-1
 1638 819 l 1,7,-1
 1228 819 l 1,4,-1
819 1228 m 1,8,-1
 819 1638 l 1,9,-1
 1228 1638 l 1,10,-1
 1228 1228 l 1,11,-1
 819 1228 l 1,8,-1
819 2048 m 1,12,-1
 819 2457 l 1,13,-1
 1228 2457 l 1,14,-1
 1228 2048 l 1,15,-1
 819 2048 l 1,12,-1
1228 2457 m 1,16,-1
 1228 2867 l 1,17,-1
 1638 2867 l 1,18,-1
 1638 2457 l 1,19,-1
 1228 2457 l 1,16,-1
0 0 m 1,20,-1
 0 3276 l 1,21,-1
 409 3276 l 1,22,-1
 409 2048 l 1,23,-1
 819 2048 l 1,24,-1
 819 1638 l 1,25,-1
 409 1638 l 1,26,-1
 409 0 l 1,27,-1
 0 0 l 1,20,-1
1638 2867 m 1,28,-1
 1638 3276 l 1,29,-1
 2048 3276 l 1,30,-1
 2048 2867 l 1,31,-1
 1638 2867 l 1,28,-1
EndSplineSet
EndChar

StartChar: L
Encoding: 76 76 47
Width: 2457
Flags: W
LayerCount: 2
Fore
SplineSet
0 0 m 1,0,-1
 0 3276 l 1,1,-1
 409 3276 l 1,2,-1
 409 409 l 1,3,-1
 2048 409 l 1,4,-1
 2048 0 l 1,5,-1
 0 0 l 1,0,-1
EndSplineSet
EndChar

StartChar: M
Encoding: 77 77 48
Width: 2457
Flags: W
LayerCount: 2
Fore
SplineSet
819 1228 m 1,0,-1
 819 2048 l 1,1,-1
 1228 2048 l 1,2,-1
 1228 1228 l 1,3,-1
 819 1228 l 1,0,-1
0 0 m 1,4,-1
 0 3276 l 1,5,-1
 409 3276 l 1,6,-1
 409 2867 l 1,7,-1
 819 2867 l 1,8,-1
 819 2048 l 1,9,-1
 409 2048 l 1,10,-1
 409 0 l 1,11,-1
 0 0 l 1,4,-1
1638 0 m 1,12,-1
 1638 2048 l 1,13,-1
 1228 2048 l 1,14,-1
 1228 2867 l 1,15,-1
 1638 2867 l 1,16,-1
 1638 3276 l 1,17,-1
 2048 3276 l 1,18,-1
 2048 0 l 1,19,-1
 1638 0 l 1,12,-1
EndSplineSet
EndChar

StartChar: N
Encoding: 78 78 49
Width: 2457
Flags: W
LayerCount: 2
Fore
SplineSet
819 1638 m 1,0,-1
 819 2048 l 1,1,-1
 1228 2048 l 1,2,-1
 1228 1638 l 1,3,-1
 819 1638 l 1,0,-1
0 0 m 1,4,-1
 0 3276 l 1,5,-1
 409 3276 l 1,6,-1
 409 2867 l 1,7,-1
 819 2867 l 1,8,-1
 819 2048 l 1,9,-1
 409 2048 l 1,10,-1
 409 0 l 1,11,-1
 0 0 l 1,4,-1
1638 0 m 1,12,-1
 1638 819 l 1,13,-1
 1228 819 l 1,14,-1
 1228 1638 l 1,15,-1
 1638 1638 l 1,16,-1
 1638 3276 l 1,17,-1
 2048 3276 l 1,18,-1
 2048 0 l 1,19,-1
 1638 0 l 1,12,-1
EndSplineSet
EndChar

StartChar: O
Encoding: 79 79 50
Width: 2457
Flags: W
LayerCount: 2
Fore
SplineSet
409 0 m 1,0,-1
 409 409 l 1,1,-1
 1638 409 l 1,2,-1
 1638 0 l 1,3,-1
 409 0 l 1,0,-1
0 409 m 1,4,-1
 0 2867 l 1,5,-1
 409 2867 l 1,6,-1
 409 409 l 1,7,-1
 0 409 l 1,4,-1
1638 409 m 1,8,-1
 1638 2867 l 1,9,-1
 2048 2867 l 1,10,-1
 2048 409 l 1,11,-1
 1638 409 l 1,8,-1
409 2867 m 1,12,-1
 409 3276 l 1,13,-1
 1638 3276 l 1,14,-1
 1638 2867 l 1,15,-1
 409 2867 l 1,12,-1
EndSplineSet
EndChar

StartChar: P
Encoding: 80 80 51
Width: 2457
Flags: W
LayerCount: 2
Fore
SplineSet
1638 1638 m 1,0,-1
 1638 2867 l 1,1,-1
 2048 2867 l 1,2,-1
 2048 1638 l 1,3,-1
 1638 1638 l 1,0,-1
0 0 m 1,4,-1
 0 3276 l 1,5,-1
 1638 3276 l 1,6,-1
 1638 2867 l 1,7,-1
 409 2867 l 1,8,-1
 409 1638 l 1,9,-1
 1638 1638 l 1,10,-1
 1638 1228 l 1,11,-1
 409 1228 l 1,12,-1
 409 0 l 1,13,-1
 0 0 l 1,4,-1
EndSplineSet
EndChar

StartChar: Q
Encoding: 81 81 52
Width: 2867
Flags: W
LayerCount: 2
Fore
SplineSet
2048 0 m 1,0,-1
 2048 409 l 1,1,-1
 2457 409 l 1,2,-1
 2457 0 l 1,3,-1
 2048 0 l 1,0,-1
0 409 m 1,4,-1
 0 2867 l 1,5,-1
 409 2867 l 1,6,-1
 409 1228 l 1,7,-1
 1228 1228 l 1,8,-1
 1228 819 l 1,9,-1
 409 819 l 1,10,-1
 409 409 l 1,11,-1
 0 409 l 1,4,-1
409 0 m 1,12,-1
 409 409 l 1,13,-1
 1228 409 l 1,14,-1
 1228 819 l 1,15,-1
 1638 819 l 1,16,-1
 1638 2867 l 1,17,-1
 2048 2867 l 1,18,-1
 2048 409 l 1,19,-1
 1638 409 l 1,20,-1
 1638 0 l 1,21,-1
 409 0 l 1,12,-1
409 2867 m 1,22,-1
 409 3276 l 1,23,-1
 1638 3276 l 1,24,-1
 1638 2867 l 1,25,-1
 409 2867 l 1,22,-1
EndSplineSet
EndChar

StartChar: R
Encoding: 82 82 53
Width: 2457
Flags: W
LayerCount: 2
Fore
SplineSet
1638 0 m 1,0,-1
 1638 819 l 1,1,-1
 2048 819 l 1,2,-1
 2048 0 l 1,3,-1
 1638 0 l 1,0,-1
1638 1638 m 1,4,-1
 1638 2867 l 1,5,-1
 2048 2867 l 1,6,-1
 2048 1638 l 1,7,-1
 1638 1638 l 1,4,-1
0 0 m 1,8,-1
 0 3276 l 1,9,-1
 1638 3276 l 1,10,-1
 1638 2867 l 1,11,-1
 409 2867 l 1,12,-1
 409 1638 l 1,13,-1
 1638 1638 l 1,14,-1
 1638 819 l 1,15,-1
 1228 819 l 1,16,-1
 1228 1228 l 1,17,-1
 409 1228 l 1,18,-1
 409 0 l 1,19,-1
 0 0 l 1,8,-1
EndSplineSet
EndChar

StartChar: S
Encoding: 83 83 54
Width: 2457
Flags: W
LayerCount: 2
Fore
SplineSet
409 0 m 1,0,-1
 409 409 l 1,1,-1
 1638 409 l 1,2,-1
 1638 0 l 1,3,-1
 409 0 l 1,0,-1
0 409 m 1,4,-1
 0 819 l 1,5,-1
 409 819 l 1,6,-1
 409 409 l 1,7,-1
 0 409 l 1,4,-1
1638 409 m 1,8,-1
 1638 1228 l 1,9,-1
 2048 1228 l 1,10,-1
 2048 409 l 1,11,-1
 1638 409 l 1,8,-1
1228 1228 m 1,12,-1
 1228 1638 l 1,13,-1
 1638 1638 l 1,14,-1
 1638 1228 l 1,15,-1
 1228 1228 l 1,12,-1
409 1638 m 1,16,-1
 409 2048 l 1,17,-1
 1228 2048 l 1,18,-1
 1228 1638 l 1,19,-1
 409 1638 l 1,16,-1
0 2048 m 1,20,-1
 0 2867 l 1,21,-1
 409 2867 l 1,22,-1
 409 2048 l 1,23,-1
 0 2048 l 1,20,-1
1638 2457 m 1,24,-1
 1638 2867 l 1,25,-1
 2048 2867 l 1,26,-1
 2048 2457 l 1,27,-1
 1638 2457 l 1,24,-1
409 2867 m 1,28,-1
 409 3276 l 1,29,-1
 1638 3276 l 1,30,-1
 1638 2867 l 1,31,-1
 409 2867 l 1,28,-1
EndSplineSet
EndChar

StartChar: T
Encoding: 84 84 55
Width: 2457
Flags: W
LayerCount: 2
Fore
SplineSet
819 0 m 1,0,-1
 819 2867 l 1,1,-1
 0 2867 l 1,2,-1
 0 3276 l 1,3,-1
 2048 3276 l 1,4,-1
 2048 2867 l 1,5,-1
 1228 2867 l 1,6,-1
 1228 0 l 1,7,-1
 819 0 l 1,0,-1
EndSplineSet
EndChar

StartChar: U
Encoding: 85 85 56
Width: 2457
Flags: W
LayerCount: 2
Fore
SplineSet
409 0 m 1,0,-1
 409 409 l 1,1,-1
 1638 409 l 1,2,-1
 1638 0 l 1,3,-1
 409 0 l 1,0,-1
0 409 m 1,4,-1
 0 3276 l 1,5,-1
 409 3276 l 1,6,-1
 409 409 l 1,7,-1
 0 409 l 1,4,-1
1638 409 m 1,8,-1
 1638 3276 l 1,9,-1
 2048 3276 l 1,10,-1
 2048 409 l 1,11,-1
 1638 409 l 1,8,-1
EndSplineSet
EndChar

StartChar: V
Encoding: 86 86 57
Width: 2457
Flags: W
LayerCount: 2
Fore
SplineSet
819 0 m 1,0,-1
 819 819 l 1,1,-1
 1228 819 l 1,2,-1
 1228 0 l 1,3,-1
 819 0 l 1,0,-1
409 819 m 1,4,-1
 409 1638 l 1,5,-1
 819 1638 l 1,6,-1
 819 819 l 1,7,-1
 409 819 l 1,4,-1
1228 819 m 1,8,-1
 1228 1638 l 1,9,-1
 1638 1638 l 1,10,-1
 1638 819 l 1,11,-1
 1228 819 l 1,8,-1
0 1638 m 1,12,-1
 0 3276 l 1,13,-1
 409 3276 l 1,14,-1
 409 1638 l 1,15,-1
 0 1638 l 1,12,-1
1638 1638 m 1,16,-1
 1638 3276 l 1,17,-1
 2048 3276 l 1,18,-1
 2048 1638 l 1,19,-1
 1638 1638 l 1,16,-1
EndSplineSet
EndChar

StartChar: W
Encoding: 87 87 58
Width: 2457
Flags: W
LayerCount: 2
Fore
SplineSet
409 0 m 1,0,-1
 409 409 l 1,1,-1
 819 409 l 1,2,-1
 819 0 l 1,3,-1
 409 0 l 1,0,-1
1228 0 m 1,4,-1
 1228 409 l 1,5,-1
 1638 409 l 1,6,-1
 1638 0 l 1,7,-1
 1228 0 l 1,4,-1
819 409 m 1,8,-1
 819 2048 l 1,9,-1
 1228 2048 l 1,10,-1
 1228 409 l 1,11,-1
 819 409 l 1,8,-1
0 409 m 1,12,-1
 0 3276 l 1,13,-1
 409 3276 l 1,14,-1
 409 409 l 1,15,-1
 0 409 l 1,12,-1
1638 409 m 1,16,-1
 1638 3276 l 1,17,-1
 2048 3276 l 1,18,-1
 2048 409 l 1,19,-1
 1638 409 l 1,16,-1
EndSplineSet
EndChar

StartChar: X
Encoding: 88 88 59
Width: 2457
Flags: W
LayerCount: 2
Fore
SplineSet
0 0 m 1,0,-1
 0 819 l 1,1,-1
 409 819 l 1,2,-1
 409 0 l 1,3,-1
 0 0 l 1,0,-1
1638 0 m 1,4,-1
 1638 819 l 1,5,-1
 2048 819 l 1,6,-1
 2048 0 l 1,7,-1
 1638 0 l 1,4,-1
409 819 m 1,8,-1
 409 1228 l 1,9,-1
 819 1228 l 1,10,-1
 819 819 l 1,11,-1
 409 819 l 1,8,-1
1228 819 m 1,12,-1
 1228 1228 l 1,13,-1
 1638 1228 l 1,14,-1
 1638 819 l 1,15,-1
 1228 819 l 1,12,-1
819 1228 m 1,16,-1
 819 2048 l 1,17,-1
 1228 2048 l 1,18,-1
 1228 1228 l 1,19,-1
 819 1228 l 1,16,-1
409 2048 m 1,20,-1
 409 2457 l 1,21,-1
 819 2457 l 1,22,-1
 819 2048 l 1,23,-1
 409 2048 l 1,20,-1
1228 2048 m 1,24,-1
 1228 2457 l 1,25,-1
 1638 2457 l 1,26,-1
 1638 2048 l 1,27,-1
 1228 2048 l 1,24,-1
0 2457 m 1,28,-1
 0 3276 l 1,29,-1
 409 3276 l 1,30,-1
 409 2457 l 1,31,-1
 0 2457 l 1,28,-1
1638 2457 m 1,32,-1
 1638 3276 l 1,33,-1
 2048 3276 l 1,34,-1
 2048 2457 l 1,35,-1
 1638 2457 l 1,32,-1
EndSplineSet
EndChar

StartChar: Y
Encoding: 89 89 60
Width: 2457
Flags: W
LayerCount: 2
Fore
SplineSet
819 0 m 1,0,-1
 819 1638 l 1,1,-1
 1228 1638 l 1,2,-1
 1228 0 l 1,3,-1
 819 0 l 1,0,-1
409 1638 m 1,4,-1
 409 2457 l 1,5,-1
 819 2457 l 1,6,-1
 819 1638 l 1,7,-1
 409 1638 l 1,4,-1
1228 1638 m 1,8,-1
 1228 2457 l 1,9,-1
 1638 2457 l 1,10,-1
 1638 1638 l 1,11,-1
 1228 1638 l 1,8,-1
0 2457 m 1,12,-1
 0 3276 l 1,13,-1
 409 3276 l 1,14,-1
 409 2457 l 1,15,-1
 0 2457 l 1,12,-1
1638 2457 m 1,16,-1
 1638 3276 l 1,17,-1
 2048 3276 l 1,18,-1
 2048 2457 l 1,19,-1
 1638 2457 l 1,16,-1
EndSplineSet
EndChar

StartChar: Z
Encoding: 90 90 61
Width: 2457
Flags: W
LayerCount: 2
Fore
SplineSet
0 0 m 1,0,-1
 0 819 l 1,1,-1
 409 819 l 1,2,-1
 409 409 l 1,3,-1
 2048 409 l 1,4,-1
 2048 0 l 1,5,-1
 0 0 l 1,0,-1
409 819 m 1,6,-1
 409 1228 l 1,7,-1
 819 1228 l 1,8,-1
 819 819 l 1,9,-1
 409 819 l 1,6,-1
819 1228 m 1,10,-1
 819 2048 l 1,11,-1
 1228 2048 l 1,12,-1
 1228 1228 l 1,13,-1
 819 1228 l 1,10,-1
1228 2048 m 1,14,-1
 1228 2457 l 1,15,-1
 1638 2457 l 1,16,-1
 1638 2048 l 1,17,-1
 1228 2048 l 1,14,-1
1638 2457 m 1,18,-1
 1638 2867 l 1,19,-1
 0 2867 l 1,20,-1
 0 3276 l 1,21,-1
 2048 3276 l 1,22,-1
 2048 2457 l 1,23,-1
 1638 2457 l 1,18,-1
EndSplineSet
EndChar

StartChar: bracketleft
Encoding: 91 91 62
Width: 1228
Flags: W
LayerCount: 2
Fore
SplineSet
0 0 m 1,0,-1
 0 4096 l 1,1,-1
 819 4096 l 1,2,-1
 819 3686 l 1,3,-1
 409 3686 l 1,4,-1
 409 409 l 1,5,-1
 819 409 l 1,6,-1
 819 0 l 1,7,-1
 0 0 l 1,0,-1
EndSplineSet
EndChar

StartChar: backslash
Encoding: 92 92 63
Width: 2457
Flags: W
LayerCount: 2
Fore
SplineSet
1638 0 m 1,0,-1
 1638 819 l 1,1,-1
 2048 819 l 1,2,-1
 2048 0 l 1,3,-1
 1638 0 l 1,0,-1
1228 819 m 1,4,-1
 1228 1638 l 1,5,-1
 1638 1638 l 1,6,-1
 1638 819 l 1,7,-1
 1228 819 l 1,4,-1
819 1638 m 1,8,-1
 819 2457 l 1,9,-1
 1228 2457 l 1,10,-1
 1228 1638 l 1,11,-1
 819 1638 l 1,8,-1
409 2457 m 1,12,-1
 409 3276 l 1,13,-1
 819 3276 l 1,14,-1
 819 2457 l 1,15,-1
 409 2457 l 1,12,-1
0 3276 m 1,16,-1
 0 4096 l 1,17,-1
 409 4096 l 1,18,-1
 409 3276 l 1,19,-1
 0 3276 l 1,16,-1
EndSplineSet
EndChar

StartChar: bracketright
Encoding: 93 93 64
Width: 1228
Flags: W
LayerCount: 2
Fore
SplineSet
0 0 m 1,0,-1
 0 409 l 1,1,-1
 409 409 l 1,2,-1
 409 3686 l 1,3,-1
 0 3686 l 1,4,-1
 0 4096 l 1,5,-1
 819 4096 l 1,6,-1
 819 0 l 1,7,-1
 0 0 l 1,0,-1
EndSplineSet
EndChar

StartChar: asciicircum
Encoding: 94 94 65
Width: 2457
Flags: W
LayerCount: 2
Fore
SplineSet
0 2457 m 1,0,-1
 0 2867 l 1,1,-1
 409 2867 l 1,2,-1
 409 2457 l 1,3,-1
 0 2457 l 1,0,-1
1638 2457 m 1,4,-1
 1638 2867 l 1,5,-1
 2048 2867 l 1,6,-1
 2048 2457 l 1,7,-1
 1638 2457 l 1,4,-1
409 2867 m 1,8,-1
 409 3276 l 1,9,-1
 819 3276 l 1,10,-1
 819 2867 l 1,11,-1
 409 2867 l 1,8,-1
1228 2867 m 1,12,-1
 1228 3276 l 1,13,-1
 1638 3276 l 1,14,-1
 1638 2867 l 1,15,-1
 1228 2867 l 1,12,-1
819 3276 m 1,16,-1
 819 3686 l 1,17,-1
 1228 3686 l 1,18,-1
 1228 3276 l 1,19,-1
 819 3276 l 1,16,-1
EndSplineSet
EndChar

StartChar: underscore
Encoding: 95 95 66
Width: 2457
Flags: W
LayerCount: 2
Fore
SplineSet
0 0 m 1,0,-1
 0 409 l 1,1,-1
 2048 409 l 1,2,-1
 2048 0 l 1,3,-1
 0 0 l 1,0,-1
EndSplineSet
EndChar

StartChar: grave
Encoding: 96 96 67
Width: 3276
Flags: W
LayerCount: 2
Fore
SplineSet
1638 819 m 1,0,-1
 1638 1638 l 1,1,-1
 0 1638 l 1,2,-1
 0 2048 l 1,3,-1
 1638 2048 l 1,4,-1
 1638 2867 l 1,5,-1
 2048 2867 l 1,6,-1
 2048 2457 l 1,7,-1
 2457 2457 l 1,8,-1
 2457 2048 l 1,9,-1
 2867 2048 l 1,10,-1
 2867 1638 l 1,11,-1
 2457 1638 l 1,12,-1
 2457 1228 l 1,13,-1
 2048 1228 l 1,14,-1
 2048 819 l 1,15,-1
 1638 819 l 1,0,-1
EndSplineSet
EndChar

StartChar: a
Encoding: 97 97 68
Width: 2457
Flags: W
LayerCount: 2
Fore
SplineSet
409 0 m 1,0,-1
 409 409 l 1,1,-1
 1228 409 l 1,2,-1
 1228 0 l 1,3,-1
 409 0 l 1,0,-1
0 409 m 1,4,-1
 0 1638 l 1,5,-1
 409 1638 l 1,6,-1
 409 409 l 1,7,-1
 0 409 l 1,4,-1
1638 0 m 1,8,-1
 1638 409 l 1,9,-1
 1228 409 l 1,10,-1
 1228 819 l 1,11,-1
 1638 819 l 1,12,-1
 1638 1638 l 1,13,-1
 2048 1638 l 1,14,-1
 2048 0 l 1,15,-1
 1638 0 l 1,8,-1
409 1638 m 1,16,-1
 409 2048 l 1,17,-1
 1638 2048 l 1,18,-1
 1638 1638 l 1,19,-1
 409 1638 l 1,16,-1
EndSplineSet
EndChar

StartChar: b
Encoding: 98 98 69
Width: 2457
Flags: W
LayerCount: 2
Fore
SplineSet
1638 409 m 1,0,-1
 1638 1638 l 1,1,-1
 2048 1638 l 1,2,-1
 2048 409 l 1,3,-1
 1638 409 l 1,0,-1
0 0 m 1,4,-1
 0 3276 l 1,5,-1
 409 3276 l 1,6,-1
 409 2048 l 1,7,-1
 1638 2048 l 1,8,-1
 1638 1638 l 1,9,-1
 409 1638 l 1,10,-1
 409 409 l 1,11,-1
 1638 409 l 1,12,-1
 1638 0 l 1,13,-1
 0 0 l 1,4,-1
EndSplineSet
EndChar

StartChar: c
Encoding: 99 99 70
Width: 2457
Flags: W
LayerCount: 2
Fore
SplineSet
409 0 m 1,0,-1
 409 409 l 1,1,-1
 1638 409 l 1,2,-1
 1638 0 l 1,3,-1
 409 0 l 1,0,-1
1638 409 m 1,4,-1
 1638 819 l 1,5,-1
 2048 819 l 1,6,-1
 2048 409 l 1,7,-1
 1638 409 l 1,4,-1
0 409 m 1,8,-1
 0 1638 l 1,9,-1
 409 1638 l 1,10,-1
 409 409 l 1,11,-1
 0 409 l 1,8,-1
1638 1228 m 1,12,-1
 1638 1638 l 1,13,-1
 2048 1638 l 1,14,-1
 2048 1228 l 1,15,-1
 1638 1228 l 1,12,-1
409 1638 m 1,16,-1
 409 2048 l 1,17,-1
 1638 2048 l 1,18,-1
 1638 1638 l 1,19,-1
 409 1638 l 1,16,-1
EndSplineSet
EndChar

StartChar: d
Encoding: 100 100 71
Width: 2457
Flags: W
LayerCount: 2
Fore
SplineSet
0 409 m 1,0,-1
 0 1638 l 1,1,-1
 409 1638 l 1,2,-1
 409 409 l 1,3,-1
 0 409 l 1,0,-1
409 0 m 1,4,-1
 409 409 l 1,5,-1
 1638 409 l 1,6,-1
 1638 1638 l 1,7,-1
 409 1638 l 1,8,-1
 409 2048 l 1,9,-1
 1638 2048 l 1,10,-1
 1638 3276 l 1,11,-1
 2048 3276 l 1,12,-1
 2048 0 l 1,13,-1
 409 0 l 1,4,-1
EndSplineSet
EndChar

StartChar: e
Encoding: 101 101 72
Width: 2457
Flags: W
LayerCount: 2
Fore
SplineSet
409 0 m 1,0,-1
 409 409 l 1,1,-1
 2048 409 l 1,2,-1
 2048 0 l 1,3,-1
 409 0 l 1,0,-1
0 409 m 1,4,-1
 0 1638 l 1,5,-1
 409 1638 l 1,6,-1
 409 1228 l 1,7,-1
 1638 1228 l 1,8,-1
 1638 1638 l 1,9,-1
 2048 1638 l 1,10,-1
 2048 819 l 1,11,-1
 409 819 l 1,12,-1
 409 409 l 1,13,-1
 0 409 l 1,4,-1
409 1638 m 1,14,-1
 409 2048 l 1,15,-1
 1638 2048 l 1,16,-1
 1638 1638 l 1,17,-1
 409 1638 l 1,14,-1
EndSplineSet
EndChar

StartChar: f
Encoding: 102 102 73
Width: 2048
Flags: W
LayerCount: 2
Fore
SplineSet
409 0 m 1,0,-1
 409 1228 l 1,1,-1
 0 1228 l 1,2,-1
 0 1638 l 1,3,-1
 409 1638 l 1,4,-1
 409 2457 l 1,5,-1
 819 2457 l 1,6,-1
 819 1638 l 1,7,-1
 1638 1638 l 1,8,-1
 1638 1228 l 1,9,-1
 819 1228 l 1,10,-1
 819 0 l 1,11,-1
 409 0 l 1,0,-1
819 2457 m 1,12,-1
 819 2867 l 1,13,-1
 1638 2867 l 1,14,-1
 1638 2457 l 1,15,-1
 819 2457 l 1,12,-1
EndSplineSet
EndChar

StartChar: g
Encoding: 103 103 74
Width: 2457
Flags: W
LayerCount: 2
Fore
SplineSet
409 -819 m 1,0,-1
 409 -409 l 1,1,-1
 1638 -409 l 1,2,-1
 1638 -819 l 1,3,-1
 409 -819 l 1,0,-1
0 409 m 1,4,-1
 0 1638 l 1,5,-1
 409 1638 l 1,6,-1
 409 409 l 1,7,-1
 0 409 l 1,4,-1
1638 -409 m 1,8,-1
 1638 0 l 1,9,-1
 409 0 l 1,10,-1
 409 409 l 1,11,-1
 1638 409 l 1,12,-1
 1638 1638 l 1,13,-1
 2048 1638 l 1,14,-1
 2048 -409 l 1,15,-1
 1638 -409 l 1,8,-1
409 1638 m 1,16,-1
 409 2048 l 1,17,-1
 1638 2048 l 1,18,-1
 1638 1638 l 1,19,-1
 409 1638 l 1,16,-1
EndSplineSet
EndChar

StartChar: h
Encoding: 104 104 75
Width: 2457
Flags: W
LayerCount: 2
Fore
SplineSet
1638 0 m 1,0,-1
 1638 1638 l 1,1,-1
 2048 1638 l 1,2,-1
 2048 0 l 1,3,-1
 1638 0 l 1,0,-1
0 0 m 1,4,-1
 0 3276 l 1,5,-1
 409 3276 l 1,6,-1
 409 2048 l 1,7,-1
 1638 2048 l 1,8,-1
 1638 1638 l 1,9,-1
 409 1638 l 1,10,-1
 409 0 l 1,11,-1
 0 0 l 1,4,-1
EndSplineSet
EndChar

StartChar: i
Encoding: 105 105 76
Width: 819
Flags: W
LayerCount: 2
Fore
SplineSet
0 0 m 1,0,-1
 0 1228 l 1,1,-1
 409 1228 l 1,2,-1
 409 0 l 1,3,-1
 0 0 l 1,0,-1
0 1638 m 1,4,-1
 0 2048 l 1,5,-1
 409 2048 l 1,6,-1
 409 1638 l 1,7,-1
 0 1638 l 1,4,-1
EndSplineSet
EndChar

StartChar: j
Encoding: 106 106 77
Width: 2048
Flags: W
LayerCount: 2
Fore
SplineSet
409 0 m 1,0,-1
 409 409 l 1,1,-1
 1228 409 l 1,2,-1
 1228 0 l 1,3,-1
 409 0 l 1,0,-1
0 409 m 1,4,-1
 0 819 l 1,5,-1
 409 819 l 1,6,-1
 409 409 l 1,7,-1
 0 409 l 1,4,-1
1228 409 m 1,8,-1
 1228 2457 l 1,9,-1
 1638 2457 l 1,10,-1
 1638 409 l 1,11,-1
 1228 409 l 1,8,-1
1228 2867 m 1,12,-1
 1228 3276 l 1,13,-1
 1638 3276 l 1,14,-1
 1638 2867 l 1,15,-1
 1228 2867 l 1,12,-1
EndSplineSet
EndChar

StartChar: k
Encoding: 107 107 78
Width: 2048
Flags: W
LayerCount: 2
Fore
SplineSet
1228 0 m 1,0,-1
 1228 409 l 1,1,-1
 1638 409 l 1,2,-1
 1638 0 l 1,3,-1
 1228 0 l 1,0,-1
819 409 m 1,4,-1
 819 819 l 1,5,-1
 1228 819 l 1,6,-1
 1228 409 l 1,7,-1
 819 409 l 1,4,-1
819 1228 m 1,8,-1
 819 1638 l 1,9,-1
 1228 1638 l 1,10,-1
 1228 1228 l 1,11,-1
 819 1228 l 1,8,-1
1228 1638 m 1,12,-1
 1228 2048 l 1,13,-1
 1638 2048 l 1,14,-1
 1638 1638 l 1,15,-1
 1228 1638 l 1,12,-1
0 0 m 1,16,-1
 0 3276 l 1,17,-1
 409 3276 l 1,18,-1
 409 1228 l 1,19,-1
 819 1228 l 1,20,-1
 819 819 l 1,21,-1
 409 819 l 1,22,-1
 409 0 l 1,23,-1
 0 0 l 1,16,-1
EndSplineSet
EndChar

StartChar: l
Encoding: 108 108 79
Width: 1228
Flags: W
LayerCount: 2
Fore
SplineSet
409 0 m 1,0,-1
 409 2867 l 1,1,-1
 0 2867 l 1,2,-1
 0 3276 l 1,3,-1
 819 3276 l 1,4,-1
 819 0 l 1,5,-1
 409 0 l 1,0,-1
EndSplineSet
EndChar

StartChar: m
Encoding: 109 109 80
Width: 2457
Flags: W
LayerCount: 2
Fore
SplineSet
1638 0 m 1,0,-1
 1638 1638 l 1,1,-1
 2048 1638 l 1,2,-1
 2048 0 l 1,3,-1
 1638 0 l 1,0,-1
0 0 m 1,4,-1
 0 2048 l 1,5,-1
 1638 2048 l 1,6,-1
 1638 1638 l 1,7,-1
 1228 1638 l 1,8,-1
 1228 0 l 1,9,-1
 819 0 l 1,10,-1
 819 1638 l 1,11,-1
 409 1638 l 1,12,-1
 409 0 l 1,13,-1
 0 0 l 1,4,-1
EndSplineSet
EndChar

StartChar: n
Encoding: 110 110 81
Width: 2048
Flags: W
LayerCount: 2
Fore
SplineSet
1228 0 m 1,0,-1
 1228 1638 l 1,1,-1
 1638 1638 l 1,2,-1
 1638 0 l 1,3,-1
 1228 0 l 1,0,-1
0 0 m 1,4,-1
 0 2048 l 1,5,-1
 1228 2048 l 1,6,-1
 1228 1638 l 1,7,-1
 409 1638 l 1,8,-1
 409 0 l 1,9,-1
 0 0 l 1,4,-1
EndSplineSet
EndChar

StartChar: o
Encoding: 111 111 82
Width: 2457
Flags: W
LayerCount: 2
Fore
SplineSet
409 0 m 1,0,-1
 409 409 l 1,1,-1
 1638 409 l 1,2,-1
 1638 0 l 1,3,-1
 409 0 l 1,0,-1
0 409 m 1,4,-1
 0 1638 l 1,5,-1
 409 1638 l 1,6,-1
 409 409 l 1,7,-1
 0 409 l 1,4,-1
1638 409 m 1,8,-1
 1638 1638 l 1,9,-1
 2048 1638 l 1,10,-1
 2048 409 l 1,11,-1
 1638 409 l 1,8,-1
409 1638 m 1,12,-1
 409 2048 l 1,13,-1
 1638 2048 l 1,14,-1
 1638 1638 l 1,15,-1
 409 1638 l 1,12,-1
EndSplineSet
EndChar

StartChar: p
Encoding: 112 112 83
Width: 2457
Flags: W
LayerCount: 2
Fore
SplineSet
1638 409 m 1,0,-1
 1638 1638 l 1,1,-1
 2048 1638 l 1,2,-1
 2048 409 l 1,3,-1
 1638 409 l 1,0,-1
0 -819 m 1,4,-1
 0 2048 l 1,5,-1
 1638 2048 l 1,6,-1
 1638 1638 l 1,7,-1
 409 1638 l 1,8,-1
 409 409 l 1,9,-1
 1638 409 l 1,10,-1
 1638 0 l 1,11,-1
 409 0 l 1,12,-1
 409 -819 l 1,13,-1
 0 -819 l 1,4,-1
EndSplineSet
EndChar

StartChar: q
Encoding: 113 113 84
Width: 2457
Flags: W
LayerCount: 2
Fore
SplineSet
0 409 m 1,0,-1
 0 1638 l 1,1,-1
 409 1638 l 1,2,-1
 409 409 l 1,3,-1
 0 409 l 1,0,-1
1638 -819 m 1,4,-1
 1638 0 l 1,5,-1
 409 0 l 1,6,-1
 409 409 l 1,7,-1
 1638 409 l 1,8,-1
 1638 1638 l 1,9,-1
 409 1638 l 1,10,-1
 409 2048 l 1,11,-1
 2048 2048 l 1,12,-1
 2048 -819 l 1,13,-1
 1638 -819 l 1,4,-1
EndSplineSet
EndChar

StartChar: r
Encoding: 114 114 85
Width: 2048
Flags: W
LayerCount: 2
Fore
SplineSet
0 0 m 1,0,-1
 0 2048 l 1,1,-1
 409 2048 l 1,2,-1
 409 1638 l 1,3,-1
 819 1638 l 1,4,-1
 819 1228 l 1,5,-1
 409 1228 l 1,6,-1
 409 0 l 1,7,-1
 0 0 l 1,0,-1
819 1638 m 1,8,-1
 819 2048 l 1,9,-1
 1638 2048 l 1,10,-1
 1638 1638 l 1,11,-1
 819 1638 l 1,8,-1
EndSplineSet
EndChar

StartChar: s
Encoding: 115 115 86
Width: 2048
Flags: W
LayerCount: 2
Fore
SplineSet
0 0 m 1,0,-1
 0 409 l 1,1,-1
 1228 409 l 1,2,-1
 1228 819 l 1,3,-1
 1638 819 l 1,4,-1
 1638 0 l 1,5,-1
 0 0 l 1,0,-1
409 819 m 1,6,-1
 409 1228 l 1,7,-1
 1228 1228 l 1,8,-1
 1228 819 l 1,9,-1
 409 819 l 1,6,-1
0 1228 m 1,10,-1
 0 2048 l 1,11,-1
 1638 2048 l 1,12,-1
 1638 1638 l 1,13,-1
 409 1638 l 1,14,-1
 409 1228 l 1,15,-1
 0 1228 l 1,10,-1
EndSplineSet
EndChar

StartChar: t
Encoding: 116 116 87
Width: 2048
Flags: W
LayerCount: 2
Fore
SplineSet
409 0 m 1,0,-1
 409 1228 l 1,1,-1
 0 1228 l 1,2,-1
 0 1638 l 1,3,-1
 409 1638 l 1,4,-1
 409 2457 l 1,5,-1
 819 2457 l 1,6,-1
 819 1638 l 1,7,-1
 1638 1638 l 1,8,-1
 1638 1228 l 1,9,-1
 819 1228 l 1,10,-1
 819 409 l 1,11,-1
 1638 409 l 1,12,-1
 1638 0 l 1,13,-1
 409 0 l 1,0,-1
EndSplineSet
EndChar

StartChar: u
Encoding: 117 117 88
Width: 2457
Flags: W
LayerCount: 2
Fore
SplineSet
409 0 m 1,0,-1
 409 409 l 1,1,-1
 1228 409 l 1,2,-1
 1228 0 l 1,3,-1
 409 0 l 1,0,-1
1638 0 m 1,4,-1
 1638 409 l 1,5,-1
 2048 409 l 1,6,-1
 2048 0 l 1,7,-1
 1638 0 l 1,4,-1
0 409 m 1,8,-1
 0 2048 l 1,9,-1
 409 2048 l 1,10,-1
 409 409 l 1,11,-1
 0 409 l 1,8,-1
1228 409 m 1,12,-1
 1228 2048 l 1,13,-1
 1638 2048 l 1,14,-1
 1638 409 l 1,15,-1
 1228 409 l 1,12,-1
EndSplineSet
EndChar

StartChar: v
Encoding: 118 118 89
Width: 2457
Flags: W
LayerCount: 2
Fore
SplineSet
819 0 m 1,0,-1
 819 409 l 1,1,-1
 1228 409 l 1,2,-1
 1228 0 l 1,3,-1
 819 0 l 1,0,-1
409 409 m 1,4,-1
 409 1228 l 1,5,-1
 819 1228 l 1,6,-1
 819 409 l 1,7,-1
 409 409 l 1,4,-1
1228 409 m 1,8,-1
 1228 1228 l 1,9,-1
 1638 1228 l 1,10,-1
 1638 409 l 1,11,-1
 1228 409 l 1,8,-1
0 1228 m 1,12,-1
 0 2048 l 1,13,-1
 409 2048 l 1,14,-1
 409 1228 l 1,15,-1
 0 1228 l 1,12,-1
1638 1228 m 1,16,-1
 1638 2048 l 1,17,-1
 2048 2048 l 1,18,-1
 2048 1228 l 1,19,-1
 1638 1228 l 1,16,-1
EndSplineSet
EndChar

StartChar: w
Encoding: 119 119 90
Width: 2457
Flags: W
LayerCount: 2
Fore
SplineSet
409 0 m 1,0,-1
 409 409 l 1,1,-1
 819 409 l 1,2,-1
 819 0 l 1,3,-1
 409 0 l 1,0,-1
1228 0 m 1,4,-1
 1228 409 l 1,5,-1
 1638 409 l 1,6,-1
 1638 0 l 1,7,-1
 1228 0 l 1,4,-1
819 409 m 1,8,-1
 819 1228 l 1,9,-1
 1228 1228 l 1,10,-1
 1228 409 l 1,11,-1
 819 409 l 1,8,-1
0 409 m 1,12,-1
 0 2048 l 1,13,-1
 409 2048 l 1,14,-1
 409 409 l 1,15,-1
 0 409 l 1,12,-1
1638 409 m 1,16,-1
 1638 2048 l 1,17,-1
 2048 2048 l 1,18,-1
 2048 409 l 1,19,-1
 1638 409 l 1,16,-1
EndSplineSet
EndChar

StartChar: x
Encoding: 120 120 91
Width: 2457
Flags: W
LayerCount: 2
Fore
SplineSet
0 0 m 1,0,-1
 0 409 l 1,1,-1
 409 409 l 1,2,-1
 409 0 l 1,3,-1
 0 0 l 1,0,-1
1638 0 m 1,4,-1
 1638 409 l 1,5,-1
 2048 409 l 1,6,-1
 2048 0 l 1,7,-1
 1638 0 l 1,4,-1
409 409 m 1,8,-1
 409 819 l 1,9,-1
 819 819 l 1,10,-1
 819 409 l 1,11,-1
 409 409 l 1,8,-1
1228 409 m 1,12,-1
 1228 819 l 1,13,-1
 1638 819 l 1,14,-1
 1638 409 l 1,15,-1
 1228 409 l 1,12,-1
819 819 m 1,16,-1
 819 1228 l 1,17,-1
 1228 1228 l 1,18,-1
 1228 819 l 1,19,-1
 819 819 l 1,16,-1
409 1228 m 1,20,-1
 409 1638 l 1,21,-1
 819 1638 l 1,22,-1
 819 1228 l 1,23,-1
 409 1228 l 1,20,-1
1228 1228 m 1,24,-1
 1228 1638 l 1,25,-1
 1638 1638 l 1,26,-1
 1638 1228 l 1,27,-1
 1228 1228 l 1,24,-1
0 1638 m 1,28,-1
 0 2048 l 1,29,-1
 409 2048 l 1,30,-1
 409 1638 l 1,31,-1
 0 1638 l 1,28,-1
1638 1638 m 1,32,-1
 1638 2048 l 1,33,-1
 2048 2048 l 1,34,-1
 2048 1638 l 1,35,-1
 1638 1638 l 1,32,-1
EndSplineSet
EndChar

StartChar: y
Encoding: 121 121 92
Width: 2457
Flags: W
LayerCount: 2
Fore
SplineSet
0 -819 m 1,0,-1
 0 -409 l 1,1,-1
 1638 -409 l 1,2,-1
 1638 -819 l 1,3,-1
 0 -819 l 1,0,-1
0 409 m 1,4,-1
 0 2048 l 1,5,-1
 409 2048 l 1,6,-1
 409 409 l 1,7,-1
 0 409 l 1,4,-1
1638 -409 m 1,8,-1
 1638 0 l 1,9,-1
 409 0 l 1,10,-1
 409 409 l 1,11,-1
 1638 409 l 1,12,-1
 1638 2048 l 1,13,-1
 2048 2048 l 1,14,-1
 2048 -409 l 1,15,-1
 1638 -409 l 1,8,-1
EndSplineSet
EndChar

StartChar: z
Encoding: 122 122 93
Width: 2457
Flags: W
LayerCount: 2
Fore
SplineSet
0 0 m 1,0,-1
 0 409 l 1,1,-1
 409 409 l 1,2,-1
 409 819 l 1,3,-1
 819 819 l 1,4,-1
 819 409 l 1,5,-1
 2048 409 l 1,6,-1
 2048 0 l 1,7,-1
 0 0 l 1,0,-1
819 819 m 1,8,-1
 819 1228 l 1,9,-1
 1228 1228 l 1,10,-1
 1228 819 l 1,11,-1
 819 819 l 1,8,-1
1228 1228 m 1,12,-1
 1228 1638 l 1,13,-1
 0 1638 l 1,14,-1
 0 2048 l 1,15,-1
 2048 2048 l 1,16,-1
 2048 1638 l 1,17,-1
 1638 1638 l 1,18,-1
 1638 1228 l 1,19,-1
 1228 1228 l 1,12,-1
EndSplineSet
EndChar

StartChar: braceleft
Encoding: 123 123 94
Width: 1638
Flags: W
LayerCount: 2
Fore
SplineSet
819 0 m 1,0,-1
 819 409 l 1,1,-1
 1228 409 l 1,2,-1
 1228 0 l 1,3,-1
 819 0 l 1,0,-1
409 409 m 1,4,-1
 409 1638 l 1,5,-1
 819 1638 l 1,6,-1
 819 409 l 1,7,-1
 409 409 l 1,4,-1
0 1638 m 1,8,-1
 0 2048 l 1,9,-1
 409 2048 l 1,10,-1
 409 1638 l 1,11,-1
 0 1638 l 1,8,-1
409 2048 m 1,12,-1
 409 3276 l 1,13,-1
 819 3276 l 1,14,-1
 819 2048 l 1,15,-1
 409 2048 l 1,12,-1
819 3276 m 1,16,-1
 819 3686 l 1,17,-1
 1228 3686 l 1,18,-1
 1228 3276 l 1,19,-1
 819 3276 l 1,16,-1
EndSplineSet
EndChar

StartChar: bar
Encoding: 124 124 95
Width: 819
Flags: W
LayerCount: 2
Fore
SplineSet
0 0 m 1,0,-1
 0 4096 l 1,1,-1
 409 4096 l 1,2,-1
 409 0 l 1,3,-1
 0 0 l 1,0,-1
EndSplineSet
EndChar

StartChar: braceright
Encoding: 125 125 96
Width: 1638
Flags: W
LayerCount: 2
Fore
SplineSet
0 0 m 1,0,-1
 0 409 l 1,1,-1
 409 409 l 1,2,-1
 409 0 l 1,3,-1
 0 0 l 1,0,-1
409 409 m 1,4,-1
 409 1638 l 1,5,-1
 819 1638 l 1,6,-1
 819 409 l 1,7,-1
 409 409 l 1,4,-1
819 1638 m 1,8,-1
 819 2048 l 1,9,-1
 1228 2048 l 1,10,-1
 1228 1638 l 1,11,-1
 819 1638 l 1,8,-1
409 2048 m 1,12,-1
 409 3276 l 1,13,-1
 819 3276 l 1,14,-1
 819 2048 l 1,15,-1
 409 2048 l 1,12,-1
0 3276 m 1,16,-1
 0 3686 l 1,17,-1
 409 3686 l 1,18,-1
 409 3276 l 1,19,-1
 0 3276 l 1,16,-1
EndSplineSet
EndChar

StartChar: asciitilde
Encoding: 126 126 97
Width: 3276
Flags: W
LayerCount: 2
Fore
SplineSet
819 819 m 1,0,-1
 819 1228 l 1,1,-1
 409 1228 l 1,2,-1
 409 1638 l 1,3,-1
 0 1638 l 1,4,-1
 0 2048 l 1,5,-1
 409 2048 l 1,6,-1
 409 2457 l 1,7,-1
 819 2457 l 1,8,-1
 819 2867 l 1,9,-1
 1228 2867 l 1,10,-1
 1228 2048 l 1,11,-1
 2867 2048 l 1,12,-1
 2867 1638 l 1,13,-1
 1228 1638 l 1,14,-1
 1228 819 l 1,15,-1
 819 819 l 1,0,-1
EndSplineSet
EndChar

StartChar: exclamdown
Encoding: 161 161 98
Width: 1638
Flags: W
LayerCount: 2
Fore
SplineSet
819 0 m 1,0,-1
 819 2867 l 1,1,-1
 1228 2867 l 1,2,-1
 1228 0 l 1,3,-1
 819 0 l 1,0,-1
819 3276 m 1,4,-1
 819 3686 l 1,5,-1
 1228 3686 l 1,6,-1
 1228 3276 l 1,7,-1
 819 3276 l 1,4,-1
EndSplineSet
EndChar

StartChar: cent
Encoding: 162 162 99
Width: 2457
Flags: W
LayerCount: 2
Fore
SplineSet
1638 409 m 1,0,-1
 1638 819 l 1,1,-1
 2048 819 l 1,2,-1
 2048 409 l 1,3,-1
 1638 409 l 1,0,-1
0 409 m 1,4,-1
 0 1638 l 1,5,-1
 409 1638 l 1,6,-1
 409 409 l 1,7,-1
 0 409 l 1,4,-1
1638 1228 m 1,8,-1
 1638 1638 l 1,9,-1
 2048 1638 l 1,10,-1
 2048 1228 l 1,11,-1
 1638 1228 l 1,8,-1
819 -409 m 1,12,-1
 819 0 l 1,13,-1
 409 0 l 1,14,-1
 409 409 l 1,15,-1
 819 409 l 1,16,-1
 819 1638 l 1,17,-1
 409 1638 l 1,18,-1
 409 2048 l 1,19,-1
 819 2048 l 1,20,-1
 819 2457 l 1,21,-1
 1228 2457 l 1,22,-1
 1228 2048 l 1,23,-1
 1638 2048 l 1,24,-1
 1638 1638 l 1,25,-1
 1228 1638 l 1,26,-1
 1228 409 l 1,27,-1
 1638 409 l 1,28,-1
 1638 0 l 1,29,-1
 1228 0 l 1,30,-1
 1228 -409 l 1,31,-1
 819 -409 l 1,12,-1
EndSplineSet
EndChar

StartChar: sterling
Encoding: 163 163 100
Width: 2457
Flags: W
LayerCount: 2
Fore
SplineSet
0 0 m 1,0,-1
 0 819 l 1,1,-1
 409 819 l 1,2,-1
 409 409 l 1,3,-1
 2048 409 l 1,4,-1
 2048 0 l 1,5,-1
 0 0 l 1,0,-1
409 819 m 1,6,-1
 409 1638 l 1,7,-1
 0 1638 l 1,8,-1
 0 2048 l 1,9,-1
 409 2048 l 1,10,-1
 409 2867 l 1,11,-1
 819 2867 l 1,12,-1
 819 2048 l 1,13,-1
 1228 2048 l 1,14,-1
 1228 1638 l 1,15,-1
 819 1638 l 1,16,-1
 819 819 l 1,17,-1
 409 819 l 1,6,-1
1638 2457 m 1,18,-1
 1638 2867 l 1,19,-1
 2048 2867 l 1,20,-1
 2048 2457 l 1,21,-1
 1638 2457 l 1,18,-1
819 2867 m 1,22,-1
 819 3276 l 1,23,-1
 1638 3276 l 1,24,-1
 1638 2867 l 1,25,-1
 819 2867 l 1,22,-1
EndSplineSet
EndChar

StartChar: yen
Encoding: 165 165 101
Width: 2457
Flags: W
LayerCount: 2
Fore
SplineSet
819 0 m 1,0,-1
 819 409 l 1,1,-1
 409 409 l 1,2,-1
 409 819 l 1,3,-1
 819 819 l 1,4,-1
 819 1228 l 1,5,-1
 409 1228 l 1,6,-1
 409 1638 l 1,7,-1
 819 1638 l 1,8,-1
 819 2048 l 1,9,-1
 1228 2048 l 1,10,-1
 1228 1638 l 1,11,-1
 1638 1638 l 1,12,-1
 1638 1228 l 1,13,-1
 1228 1228 l 1,14,-1
 1228 819 l 1,15,-1
 1638 819 l 1,16,-1
 1638 409 l 1,17,-1
 1228 409 l 1,18,-1
 1228 0 l 1,19,-1
 819 0 l 1,0,-1
409 2048 m 1,20,-1
 409 2867 l 1,21,-1
 819 2867 l 1,22,-1
 819 2048 l 1,23,-1
 409 2048 l 1,20,-1
1228 2048 m 1,24,-1
 1228 2867 l 1,25,-1
 1638 2867 l 1,26,-1
 1638 2048 l 1,27,-1
 1228 2048 l 1,24,-1
0 2867 m 1,28,-1
 0 3686 l 1,29,-1
 409 3686 l 1,30,-1
 409 2867 l 1,31,-1
 0 2867 l 1,28,-1
1638 2867 m 1,32,-1
 1638 3686 l 1,33,-1
 2048 3686 l 1,34,-1
 2048 2867 l 1,35,-1
 1638 2867 l 1,32,-1
EndSplineSet
EndChar

StartChar: brokenbar
Encoding: 166 166 102
Width: 819
Flags: W
LayerCount: 2
Fore
SplineSet
0 0 m 1,0,-1
 0 1228 l 1,1,-1
 409 1228 l 1,2,-1
 409 0 l 1,3,-1
 0 0 l 1,0,-1
0 2048 m 1,4,-1
 0 3276 l 1,5,-1
 409 3276 l 1,6,-1
 409 2048 l 1,7,-1
 0 2048 l 1,4,-1
EndSplineSet
EndChar

StartChar: section
Encoding: 167 167 103
Width: 2457
Flags: W
LayerCount: 2
Fore
SplineSet
409 0 m 1,0,-1
 409 409 l 1,1,-1
 1638 409 l 1,2,-1
 1638 0 l 1,3,-1
 409 0 l 1,0,-1
0 409 m 1,4,-1
 0 819 l 1,5,-1
 409 819 l 1,6,-1
 409 409 l 1,7,-1
 0 409 l 1,4,-1
409 1228 m 1,8,-1
 409 1638 l 1,9,-1
 819 1638 l 1,10,-1
 819 1228 l 1,11,-1
 409 1228 l 1,8,-1
1638 409 m 1,12,-1
 1638 819 l 1,13,-1
 819 819 l 1,14,-1
 819 1228 l 1,15,-1
 1638 1228 l 1,16,-1
 1638 1638 l 1,17,-1
 2048 1638 l 1,18,-1
 2048 409 l 1,19,-1
 1638 409 l 1,12,-1
1228 1638 m 1,20,-1
 1228 2048 l 1,21,-1
 1638 2048 l 1,22,-1
 1638 1638 l 1,23,-1
 1228 1638 l 1,20,-1
0 1638 m 1,24,-1
 0 2867 l 1,25,-1
 409 2867 l 1,26,-1
 409 2457 l 1,27,-1
 1228 2457 l 1,28,-1
 1228 2048 l 1,29,-1
 409 2048 l 1,30,-1
 409 1638 l 1,31,-1
 0 1638 l 1,24,-1
1638 2457 m 1,32,-1
 1638 2867 l 1,33,-1
 2048 2867 l 1,34,-1
 2048 2457 l 1,35,-1
 1638 2457 l 1,32,-1
409 2867 m 1,36,-1
 409 3276 l 1,37,-1
 1638 3276 l 1,38,-1
 1638 2867 l 1,39,-1
 409 2867 l 1,36,-1
EndSplineSet
EndChar

StartChar: dieresis
Encoding: 168 168 104
Width: 1638
Flags: W
LayerCount: 2
Fore
SplineSet
0 2457 m 1,0,-1
 0 2867 l 1,1,-1
 409 2867 l 1,2,-1
 409 2457 l 1,3,-1
 0 2457 l 1,0,-1
819 2457 m 1,4,-1
 819 2867 l 1,5,-1
 1228 2867 l 1,6,-1
 1228 2457 l 1,7,-1
 819 2457 l 1,4,-1
EndSplineSet
EndChar

StartChar: guillemotleft
Encoding: 171 171 105
Width: 2867
Flags: W
LayerCount: 2
Fore
SplineSet
1228 409 m 1,0,-1
 1228 819 l 1,1,-1
 1638 819 l 1,2,-1
 1638 409 l 1,3,-1
 1228 409 l 1,0,-1
2048 409 m 1,4,-1
 2048 819 l 1,5,-1
 2457 819 l 1,6,-1
 2457 409 l 1,7,-1
 2048 409 l 1,4,-1
819 819 m 1,8,-1
 819 1228 l 1,9,-1
 1228 1228 l 1,10,-1
 1228 819 l 1,11,-1
 819 819 l 1,8,-1
1638 819 m 1,12,-1
 1638 1228 l 1,13,-1
 2048 1228 l 1,14,-1
 2048 819 l 1,15,-1
 1638 819 l 1,12,-1
409 1228 m 1,16,-1
 409 1638 l 1,17,-1
 819 1638 l 1,18,-1
 819 1228 l 1,19,-1
 409 1228 l 1,16,-1
1228 1228 m 1,20,-1
 1228 1638 l 1,21,-1
 1638 1638 l 1,22,-1
 1638 1228 l 1,23,-1
 1228 1228 l 1,20,-1
0 1638 m 1,24,-1
 0 2048 l 1,25,-1
 409 2048 l 1,26,-1
 409 1638 l 1,27,-1
 0 1638 l 1,24,-1
819 1638 m 1,28,-1
 819 2048 l 1,29,-1
 1228 2048 l 1,30,-1
 1228 1638 l 1,31,-1
 819 1638 l 1,28,-1
409 2048 m 1,32,-1
 409 2457 l 1,33,-1
 819 2457 l 1,34,-1
 819 2048 l 1,35,-1
 409 2048 l 1,32,-1
1228 2048 m 1,36,-1
 1228 2457 l 1,37,-1
 1638 2457 l 1,38,-1
 1638 2048 l 1,39,-1
 1228 2048 l 1,36,-1
819 2457 m 1,40,-1
 819 2867 l 1,41,-1
 1228 2867 l 1,42,-1
 1228 2457 l 1,43,-1
 819 2457 l 1,40,-1
1638 2457 m 1,44,-1
 1638 2867 l 1,45,-1
 2048 2867 l 1,46,-1
 2048 2457 l 1,47,-1
 1638 2457 l 1,44,-1
1228 2867 m 1,48,-1
 1228 3276 l 1,49,-1
 1638 3276 l 1,50,-1
 1638 2867 l 1,51,-1
 1228 2867 l 1,48,-1
2048 2867 m 1,52,-1
 2048 3276 l 1,53,-1
 2457 3276 l 1,54,-1
 2457 2867 l 1,55,-1
 2048 2867 l 1,52,-1
EndSplineSet
EndChar

StartChar: logicalnot
Encoding: 172 172 106
Width: 2457
Flags: W
LayerCount: 2
Fore
SplineSet
1638 1228 m 1,0,-1
 1638 2048 l 1,1,-1
 0 2048 l 1,2,-1
 0 2457 l 1,3,-1
 2048 2457 l 1,4,-1
 2048 1228 l 1,5,-1
 1638 1228 l 1,0,-1
EndSplineSet
EndChar

StartChar: uni00AD
Encoding: 173 173 107
Width: 1638
Flags: W
LayerCount: 2
Fore
SplineSet
0 1638 m 1,0,-1
 0 2048 l 1,1,-1
 1228 2048 l 1,2,-1
 1228 1638 l 1,3,-1
 0 1638 l 1,0,-1
EndSplineSet
EndChar

StartChar: macron
Encoding: 175 175 108
Width: 2457
Flags: W
LayerCount: 2
Fore
SplineSet
0 2867 m 1,0,-1
 0 3276 l 1,1,-1
 2048 3276 l 1,2,-1
 2048 2867 l 1,3,-1
 0 2867 l 1,0,-1
EndSplineSet
EndChar

StartChar: degree
Encoding: 176 176 109
Width: 1638
Flags: W
LayerCount: 2
Fore
SplineSet
409 2048 m 1,0,-1
 409 2457 l 1,1,-1
 819 2457 l 1,2,-1
 819 2048 l 1,3,-1
 409 2048 l 1,0,-1
0 2457 m 1,4,-1
 0 2867 l 1,5,-1
 409 2867 l 1,6,-1
 409 2457 l 1,7,-1
 0 2457 l 1,4,-1
819 2457 m 1,8,-1
 819 2867 l 1,9,-1
 1228 2867 l 1,10,-1
 1228 2457 l 1,11,-1
 819 2457 l 1,8,-1
409 2867 m 1,12,-1
 409 3276 l 1,13,-1
 819 3276 l 1,14,-1
 819 2867 l 1,15,-1
 409 2867 l 1,12,-1
EndSplineSet
EndChar

StartChar: plusminus
Encoding: 177 177 110
Width: 2457
Flags: W
LayerCount: 2
Fore
SplineSet
0 0 m 1,0,-1
 0 409 l 1,1,-1
 2048 409 l 1,2,-1
 2048 0 l 1,3,-1
 0 0 l 1,0,-1
819 819 m 1,4,-1
 819 1638 l 1,5,-1
 0 1638 l 1,6,-1
 0 2048 l 1,7,-1
 819 2048 l 1,8,-1
 819 2867 l 1,9,-1
 1228 2867 l 1,10,-1
 1228 2048 l 1,11,-1
 2048 2048 l 1,12,-1
 2048 1638 l 1,13,-1
 1228 1638 l 1,14,-1
 1228 819 l 1,15,-1
 819 819 l 1,4,-1
EndSplineSet
EndChar

StartChar: uni00B2
Encoding: 178 178 111
Width: 2048
Flags: W
LayerCount: 2
Fore
SplineSet
0 1638 m 1,0,-1
 0 2048 l 1,1,-1
 409 2048 l 1,2,-1
 409 2457 l 1,3,-1
 819 2457 l 1,4,-1
 819 2048 l 1,5,-1
 1638 2048 l 1,6,-1
 1638 1638 l 1,7,-1
 0 1638 l 1,0,-1
819 2457 m 1,8,-1
 819 2867 l 1,9,-1
 1228 2867 l 1,10,-1
 1228 2457 l 1,11,-1
 819 2457 l 1,8,-1
0 2867 m 1,12,-1
 0 3276 l 1,13,-1
 409 3276 l 1,14,-1
 409 2867 l 1,15,-1
 0 2867 l 1,12,-1
1228 2867 m 1,16,-1
 1228 3276 l 1,17,-1
 1638 3276 l 1,18,-1
 1638 2867 l 1,19,-1
 1228 2867 l 1,16,-1
409 3276 m 1,20,-1
 409 3686 l 1,21,-1
 1228 3686 l 1,22,-1
 1228 3276 l 1,23,-1
 409 3276 l 1,20,-1
EndSplineSet
EndChar

StartChar: uni00B3
Encoding: 179 179 112
Width: 2048
Flags: W
LayerCount: 2
Fore
SplineSet
409 1638 m 1,0,-1
 409 2048 l 1,1,-1
 1228 2048 l 1,2,-1
 1228 1638 l 1,3,-1
 409 1638 l 1,0,-1
0 2048 m 1,4,-1
 0 2457 l 1,5,-1
 409 2457 l 1,6,-1
 409 2048 l 1,7,-1
 0 2048 l 1,4,-1
0 2867 m 1,8,-1
 0 3276 l 1,9,-1
 409 3276 l 1,10,-1
 409 2867 l 1,11,-1
 0 2867 l 1,8,-1
1228 2048 m 1,12,-1
 1228 2457 l 1,13,-1
 819 2457 l 1,14,-1
 819 2867 l 1,15,-1
 1228 2867 l 1,16,-1
 1228 3276 l 1,17,-1
 1638 3276 l 1,18,-1
 1638 2048 l 1,19,-1
 1228 2048 l 1,12,-1
409 3276 m 1,20,-1
 409 3686 l 1,21,-1
 1228 3686 l 1,22,-1
 1228 3276 l 1,23,-1
 409 3276 l 1,20,-1
EndSplineSet
EndChar

StartChar: acute
Encoding: 180 180 113
Width: 1638
Flags: W
LayerCount: 2
Fore
SplineSet
0 1638 m 1,0,-1
 0 2048 l 1,1,-1
 409 2048 l 1,2,-1
 409 1638 l 1,3,-1
 0 1638 l 1,0,-1
409 2048 m 1,4,-1
 409 2457 l 1,5,-1
 1228 2457 l 1,6,-1
 1228 2048 l 1,7,-1
 409 2048 l 1,4,-1
EndSplineSet
EndChar

StartChar: mu
Encoding: 181 181 114
Width: 2457
Flags: W
LayerCount: 2
Fore
SplineSet
1638 409 m 1,0,-1
 1638 819 l 1,1,-1
 2048 819 l 1,2,-1
 2048 409 l 1,3,-1
 1638 409 l 1,0,-1
0 0 m 1,4,-1
 0 2048 l 1,5,-1
 409 2048 l 1,6,-1
 409 819 l 1,7,-1
 1228 819 l 1,8,-1
 1228 409 l 1,9,-1
 409 409 l 1,10,-1
 409 0 l 1,11,-1
 0 0 l 1,4,-1
1228 819 m 1,12,-1
 1228 2048 l 1,13,-1
 1638 2048 l 1,14,-1
 1638 819 l 1,15,-1
 1228 819 l 1,12,-1
EndSplineSet
EndChar

StartChar: paragraph
Encoding: 182 182 115
Width: 2457
Flags: W
LayerCount: 2
Fore
SplineSet
819 0 m 1,0,-1
 819 1638 l 1,1,-1
 409 1638 l 1,2,-1
 409 2048 l 1,3,-1
 0 2048 l 1,4,-1
 0 2867 l 1,5,-1
 409 2867 l 1,6,-1
 409 3276 l 1,7,-1
 2048 3276 l 1,8,-1
 2048 0 l 1,9,-1
 1638 0 l 1,10,-1
 1638 2867 l 1,11,-1
 1228 2867 l 1,12,-1
 1228 0 l 1,13,-1
 819 0 l 1,0,-1
EndSplineSet
EndChar

StartChar: periodcentered
Encoding: 183 183 116
Width: 819
Flags: W
LayerCount: 2
Fore
SplineSet
0 1638 m 1,0,-1
 0 2048 l 1,1,-1
 409 2048 l 1,2,-1
 409 1638 l 1,3,-1
 0 1638 l 1,0,-1
EndSplineSet
EndChar

StartChar: uni00B9
Encoding: 185 185 117
Width: 1228
Flags: W
LayerCount: 2
Fore
SplineSet
409 819 m 1,0,-1
 409 2457 l 1,1,-1
 0 2457 l 1,2,-1
 0 2867 l 1,3,-1
 819 2867 l 1,4,-1
 819 819 l 1,5,-1
 409 819 l 1,0,-1
EndSplineSet
EndChar

StartChar: guillemotright
Encoding: 187 187 118
Width: 2867
Flags: W
LayerCount: 2
Fore
SplineSet
0 409 m 1,0,-1
 0 819 l 1,1,-1
 409 819 l 1,2,-1
 409 409 l 1,3,-1
 0 409 l 1,0,-1
819 409 m 1,4,-1
 819 819 l 1,5,-1
 1228 819 l 1,6,-1
 1228 409 l 1,7,-1
 819 409 l 1,4,-1
409 819 m 1,8,-1
 409 1228 l 1,9,-1
 819 1228 l 1,10,-1
 819 819 l 1,11,-1
 409 819 l 1,8,-1
1228 819 m 1,12,-1
 1228 1228 l 1,13,-1
 1638 1228 l 1,14,-1
 1638 819 l 1,15,-1
 1228 819 l 1,12,-1
819 1228 m 1,16,-1
 819 1638 l 1,17,-1
 1228 1638 l 1,18,-1
 1228 1228 l 1,19,-1
 819 1228 l 1,16,-1
1638 1228 m 1,20,-1
 1638 1638 l 1,21,-1
 2048 1638 l 1,22,-1
 2048 1228 l 1,23,-1
 1638 1228 l 1,20,-1
1228 1638 m 1,24,-1
 1228 2048 l 1,25,-1
 1638 2048 l 1,26,-1
 1638 1638 l 1,27,-1
 1228 1638 l 1,24,-1
2048 1638 m 1,28,-1
 2048 2048 l 1,29,-1
 2457 2048 l 1,30,-1
 2457 1638 l 1,31,-1
 2048 1638 l 1,28,-1
819 2048 m 1,32,-1
 819 2457 l 1,33,-1
 1228 2457 l 1,34,-1
 1228 2048 l 1,35,-1
 819 2048 l 1,32,-1
1638 2048 m 1,36,-1
 1638 2457 l 1,37,-1
 2048 2457 l 1,38,-1
 2048 2048 l 1,39,-1
 1638 2048 l 1,36,-1
409 2457 m 1,40,-1
 409 2867 l 1,41,-1
 819 2867 l 1,42,-1
 819 2457 l 1,43,-1
 409 2457 l 1,40,-1
1228 2457 m 1,44,-1
 1228 2867 l 1,45,-1
 1638 2867 l 1,46,-1
 1638 2457 l 1,47,-1
 1228 2457 l 1,44,-1
0 2867 m 1,48,-1
 0 3276 l 1,49,-1
 409 3276 l 1,50,-1
 409 2867 l 1,51,-1
 0 2867 l 1,48,-1
819 2867 m 1,52,-1
 819 3276 l 1,53,-1
 1228 3276 l 1,54,-1
 1228 2867 l 1,55,-1
 819 2867 l 1,52,-1
EndSplineSet
EndChar

StartChar: questiondown
Encoding: 191 191 119
Width: 2457
Flags: W
LayerCount: 2
Fore
SplineSet
409 0 m 1,0,-1
 409 409 l 1,1,-1
 1638 409 l 1,2,-1
 1638 0 l 1,3,-1
 409 0 l 1,0,-1
0 409 m 1,4,-1
 0 1638 l 1,5,-1
 409 1638 l 1,6,-1
 409 409 l 1,7,-1
 0 409 l 1,4,-1
1638 409 m 1,8,-1
 1638 1638 l 1,9,-1
 2048 1638 l 1,10,-1
 2048 409 l 1,11,-1
 1638 409 l 1,8,-1
409 1638 m 1,12,-1
 409 2048 l 1,13,-1
 819 2048 l 1,14,-1
 819 1638 l 1,15,-1
 409 1638 l 1,12,-1
819 2048 m 1,16,-1
 819 2867 l 1,17,-1
 1228 2867 l 1,18,-1
 1228 2048 l 1,19,-1
 819 2048 l 1,16,-1
819 3276 m 1,20,-1
 819 3686 l 1,21,-1
 1228 3686 l 1,22,-1
 1228 3276 l 1,23,-1
 819 3276 l 1,20,-1
EndSplineSet
EndChar

StartChar: Agrave
Encoding: 192 192 120
Width: 2457
Flags: W
LayerCount: 2
Fore
SplineSet
0 0 m 1,0,-1
 0 2867 l 1,1,-1
 409 2867 l 1,2,-1
 409 1638 l 1,3,-1
 1638 1638 l 1,4,-1
 1638 2867 l 1,5,-1
 2048 2867 l 1,6,-1
 2048 0 l 1,7,-1
 1638 0 l 1,8,-1
 1638 1228 l 1,9,-1
 409 1228 l 1,10,-1
 409 0 l 1,11,-1
 0 0 l 1,0,-1
409 2867 m 1,12,-1
 409 3276 l 1,13,-1
 1638 3276 l 1,14,-1
 1638 2867 l 1,15,-1
 409 2867 l 1,12,-1
1228 3686 m 1,16,-1
 1228 4096 l 1,17,-1
 1638 4096 l 1,18,-1
 1638 3686 l 1,19,-1
 1228 3686 l 1,16,-1
409 4096 m 1,20,-1
 409 4505 l 1,21,-1
 1228 4505 l 1,22,-1
 1228 4096 l 1,23,-1
 409 4096 l 1,20,-1
EndSplineSet
EndChar

StartChar: Aacute
Encoding: 193 193 121
Width: 2457
Flags: W
LayerCount: 2
Fore
SplineSet
0 0 m 1,0,-1
 0 2867 l 1,1,-1
 409 2867 l 1,2,-1
 409 1638 l 1,3,-1
 1638 1638 l 1,4,-1
 1638 2867 l 1,5,-1
 2048 2867 l 1,6,-1
 2048 0 l 1,7,-1
 1638 0 l 1,8,-1
 1638 1228 l 1,9,-1
 409 1228 l 1,10,-1
 409 0 l 1,11,-1
 0 0 l 1,0,-1
409 2867 m 1,12,-1
 409 3276 l 1,13,-1
 1638 3276 l 1,14,-1
 1638 2867 l 1,15,-1
 409 2867 l 1,12,-1
409 3686 m 1,16,-1
 409 4096 l 1,17,-1
 819 4096 l 1,18,-1
 819 3686 l 1,19,-1
 409 3686 l 1,16,-1
819 4096 m 1,20,-1
 819 4505 l 1,21,-1
 1638 4505 l 1,22,-1
 1638 4096 l 1,23,-1
 819 4096 l 1,20,-1
EndSplineSet
EndChar

StartChar: Acircumflex
Encoding: 194 194 122
Width: 2457
Flags: W
LayerCount: 2
Fore
SplineSet
0 0 m 1,0,-1
 0 2867 l 1,1,-1
 409 2867 l 1,2,-1
 409 1638 l 1,3,-1
 1638 1638 l 1,4,-1
 1638 2867 l 1,5,-1
 2048 2867 l 1,6,-1
 2048 0 l 1,7,-1
 1638 0 l 1,8,-1
 1638 1228 l 1,9,-1
 409 1228 l 1,10,-1
 409 0 l 1,11,-1
 0 0 l 1,0,-1
409 2867 m 1,12,-1
 409 3276 l 1,13,-1
 1638 3276 l 1,14,-1
 1638 2867 l 1,15,-1
 409 2867 l 1,12,-1
409 3686 m 1,16,-1
 409 4096 l 1,17,-1
 819 4096 l 1,18,-1
 819 3686 l 1,19,-1
 409 3686 l 1,16,-1
1228 3686 m 1,20,-1
 1228 4096 l 1,21,-1
 1638 4096 l 1,22,-1
 1638 3686 l 1,23,-1
 1228 3686 l 1,20,-1
819 4096 m 1,24,-1
 819 4505 l 1,25,-1
 1228 4505 l 1,26,-1
 1228 4096 l 1,27,-1
 819 4096 l 1,24,-1
EndSplineSet
EndChar

StartChar: Atilde
Encoding: 195 195 123
Width: 2867
Flags: W
LayerCount: 2
Fore
SplineSet
0 0 m 1,0,-1
 0 2867 l 1,1,-1
 409 2867 l 1,2,-1
 409 1638 l 1,3,-1
 1638 1638 l 1,4,-1
 1638 2867 l 1,5,-1
 2048 2867 l 1,6,-1
 2048 0 l 1,7,-1
 1638 0 l 1,8,-1
 1638 1228 l 1,9,-1
 409 1228 l 1,10,-1
 409 0 l 1,11,-1
 0 0 l 1,0,-1
409 2867 m 1,12,-1
 409 3276 l 1,13,-1
 1638 3276 l 1,14,-1
 1638 2867 l 1,15,-1
 409 2867 l 1,12,-1
0 3686 m 1,16,-1
 0 4096 l 1,17,-1
 409 4096 l 1,18,-1
 409 3686 l 1,19,-1
 0 3686 l 1,16,-1
1228 3686 m 1,20,-1
 1228 4096 l 1,21,-1
 2048 4096 l 1,22,-1
 2048 3686 l 1,23,-1
 1228 3686 l 1,20,-1
409 4096 m 1,24,-1
 409 4505 l 1,25,-1
 1228 4505 l 1,26,-1
 1228 4096 l 1,27,-1
 409 4096 l 1,24,-1
2048 4096 m 1,28,-1
 2048 4505 l 1,29,-1
 2457 4505 l 1,30,-1
 2457 4096 l 1,31,-1
 2048 4096 l 1,28,-1
EndSplineSet
EndChar

StartChar: Adieresis
Encoding: 196 196 124
Width: 2457
Flags: W
LayerCount: 2
Fore
SplineSet
0 0 m 1,0,-1
 0 2867 l 1,1,-1
 409 2867 l 1,2,-1
 409 1638 l 1,3,-1
 1638 1638 l 1,4,-1
 1638 2867 l 1,5,-1
 2048 2867 l 1,6,-1
 2048 0 l 1,7,-1
 1638 0 l 1,8,-1
 1638 1228 l 1,9,-1
 409 1228 l 1,10,-1
 409 0 l 1,11,-1
 0 0 l 1,0,-1
409 2867 m 1,12,-1
 409 3276 l 1,13,-1
 1638 3276 l 1,14,-1
 1638 2867 l 1,15,-1
 409 2867 l 1,12,-1
409 3686 m 1,16,-1
 409 4096 l 1,17,-1
 819 4096 l 1,18,-1
 819 3686 l 1,19,-1
 409 3686 l 1,16,-1
1228 3686 m 1,20,-1
 1228 4096 l 1,21,-1
 1638 4096 l 1,22,-1
 1638 3686 l 1,23,-1
 1228 3686 l 1,20,-1
EndSplineSet
EndChar

StartChar: Aring
Encoding: 197 197 125
Width: 2457
Flags: W
LayerCount: 2
Fore
SplineSet
0 0 m 1,0,-1
 0 2867 l 1,1,-1
 409 2867 l 1,2,-1
 409 1638 l 1,3,-1
 1638 1638 l 1,4,-1
 1638 2867 l 1,5,-1
 2048 2867 l 1,6,-1
 2048 0 l 1,7,-1
 1638 0 l 1,8,-1
 1638 1228 l 1,9,-1
 409 1228 l 1,10,-1
 409 0 l 1,11,-1
 0 0 l 1,0,-1
409 2867 m 1,12,-1
 409 3276 l 1,13,-1
 1638 3276 l 1,14,-1
 1638 2867 l 1,15,-1
 409 2867 l 1,12,-1
819 3686 m 1,16,-1
 819 4096 l 1,17,-1
 1228 4096 l 1,18,-1
 1228 3686 l 1,19,-1
 819 3686 l 1,16,-1
409 4096 m 1,20,-1
 409 4505 l 1,21,-1
 819 4505 l 1,22,-1
 819 4096 l 1,23,-1
 409 4096 l 1,20,-1
1228 4096 m 1,24,-1
 1228 4505 l 1,25,-1
 1638 4505 l 1,26,-1
 1638 4096 l 1,27,-1
 1228 4096 l 1,24,-1
819 4505 m 1,28,-1
 819 4915 l 1,29,-1
 1228 4915 l 1,30,-1
 1228 4505 l 1,31,-1
 819 4505 l 1,28,-1
EndSplineSet
EndChar

StartChar: AE
Encoding: 198 198 126
Width: 2867
Flags: W
LayerCount: 2
Fore
SplineSet
409 2048 m 1,0,-1
 409 2867 l 1,1,-1
 819 2867 l 1,2,-1
 819 2048 l 1,3,-1
 409 2048 l 1,0,-1
0 0 m 1,4,-1
 0 2048 l 1,5,-1
 409 2048 l 1,6,-1
 409 1228 l 1,7,-1
 1228 1228 l 1,8,-1
 1228 2867 l 1,9,-1
 819 2867 l 1,10,-1
 819 3276 l 1,11,-1
 2457 3276 l 1,12,-1
 2457 2867 l 1,13,-1
 1638 2867 l 1,14,-1
 1638 2048 l 1,15,-1
 2048 2048 l 1,16,-1
 2048 1638 l 1,17,-1
 1638 1638 l 1,18,-1
 1638 409 l 1,19,-1
 2457 409 l 1,20,-1
 2457 0 l 1,21,-1
 1228 0 l 1,22,-1
 1228 819 l 1,23,-1
 409 819 l 1,24,-1
 409 0 l 1,25,-1
 0 0 l 1,4,-1
EndSplineSet
EndChar

StartChar: Egrave
Encoding: 200 200 127
Width: 2457
Flags: W
LayerCount: 2
Fore
SplineSet
0 0 m 1,0,-1
 0 3276 l 1,1,-1
 2048 3276 l 1,2,-1
 2048 2867 l 1,3,-1
 409 2867 l 1,4,-1
 409 2048 l 1,5,-1
 1638 2048 l 1,6,-1
 1638 1638 l 1,7,-1
 409 1638 l 1,8,-1
 409 409 l 1,9,-1
 2048 409 l 1,10,-1
 2048 0 l 1,11,-1
 0 0 l 1,0,-1
1228 3686 m 1,12,-1
 1228 4096 l 1,13,-1
 1638 4096 l 1,14,-1
 1638 3686 l 1,15,-1
 1228 3686 l 1,12,-1
409 4096 m 1,16,-1
 409 4505 l 1,17,-1
 1228 4505 l 1,18,-1
 1228 4096 l 1,19,-1
 409 4096 l 1,16,-1
EndSplineSet
EndChar

StartChar: Eacute
Encoding: 201 201 128
Width: 2457
Flags: W
LayerCount: 2
Fore
SplineSet
0 0 m 1,0,-1
 0 3276 l 1,1,-1
 2048 3276 l 1,2,-1
 2048 2867 l 1,3,-1
 409 2867 l 1,4,-1
 409 2048 l 1,5,-1
 1638 2048 l 1,6,-1
 1638 1638 l 1,7,-1
 409 1638 l 1,8,-1
 409 409 l 1,9,-1
 2048 409 l 1,10,-1
 2048 0 l 1,11,-1
 0 0 l 1,0,-1
409 3686 m 1,12,-1
 409 4096 l 1,13,-1
 819 4096 l 1,14,-1
 819 3686 l 1,15,-1
 409 3686 l 1,12,-1
819 4096 m 1,16,-1
 819 4505 l 1,17,-1
 1638 4505 l 1,18,-1
 1638 4096 l 1,19,-1
 819 4096 l 1,16,-1
EndSplineSet
EndChar

StartChar: Ecircumflex
Encoding: 202 202 129
Width: 2457
Flags: W
LayerCount: 2
Fore
SplineSet
0 0 m 1,0,-1
 0 3276 l 1,1,-1
 2048 3276 l 1,2,-1
 2048 2867 l 1,3,-1
 409 2867 l 1,4,-1
 409 2048 l 1,5,-1
 1638 2048 l 1,6,-1
 1638 1638 l 1,7,-1
 409 1638 l 1,8,-1
 409 409 l 1,9,-1
 2048 409 l 1,10,-1
 2048 0 l 1,11,-1
 0 0 l 1,0,-1
409 3686 m 1,12,-1
 409 4096 l 1,13,-1
 819 4096 l 1,14,-1
 819 3686 l 1,15,-1
 409 3686 l 1,12,-1
1228 3686 m 1,16,-1
 1228 4096 l 1,17,-1
 1638 4096 l 1,18,-1
 1638 3686 l 1,19,-1
 1228 3686 l 1,16,-1
819 4096 m 1,20,-1
 819 4505 l 1,21,-1
 1228 4505 l 1,22,-1
 1228 4096 l 1,23,-1
 819 4096 l 1,20,-1
EndSplineSet
EndChar

StartChar: Edieresis
Encoding: 203 203 130
Width: 2457
Flags: W
LayerCount: 2
Fore
SplineSet
0 0 m 1,0,-1
 0 3276 l 1,1,-1
 2048 3276 l 1,2,-1
 2048 2867 l 1,3,-1
 409 2867 l 1,4,-1
 409 2048 l 1,5,-1
 1638 2048 l 1,6,-1
 1638 1638 l 1,7,-1
 409 1638 l 1,8,-1
 409 409 l 1,9,-1
 2048 409 l 1,10,-1
 2048 0 l 1,11,-1
 0 0 l 1,0,-1
409 3686 m 1,12,-1
 409 4096 l 1,13,-1
 819 4096 l 1,14,-1
 819 3686 l 1,15,-1
 409 3686 l 1,12,-1
1228 3686 m 1,16,-1
 1228 4096 l 1,17,-1
 1638 4096 l 1,18,-1
 1638 3686 l 1,19,-1
 1228 3686 l 1,16,-1
EndSplineSet
EndChar

StartChar: Igrave
Encoding: 204 204 131
Width: 2457
Flags: W
LayerCount: 2
Fore
SplineSet
0 0 m 1,0,-1
 0 409 l 1,1,-1
 819 409 l 1,2,-1
 819 2867 l 1,3,-1
 0 2867 l 1,4,-1
 0 3276 l 1,5,-1
 2048 3276 l 1,6,-1
 2048 2867 l 1,7,-1
 1228 2867 l 1,8,-1
 1228 409 l 1,9,-1
 2048 409 l 1,10,-1
 2048 0 l 1,11,-1
 0 0 l 1,0,-1
1228 3686 m 1,12,-1
 1228 4096 l 1,13,-1
 1638 4096 l 1,14,-1
 1638 3686 l 1,15,-1
 1228 3686 l 1,12,-1
409 4096 m 1,16,-1
 409 4505 l 1,17,-1
 1228 4505 l 1,18,-1
 1228 4096 l 1,19,-1
 409 4096 l 1,16,-1
EndSplineSet
EndChar

StartChar: Iacute
Encoding: 205 205 132
Width: 2457
Flags: W
LayerCount: 2
Fore
SplineSet
0 0 m 1,0,-1
 0 409 l 1,1,-1
 819 409 l 1,2,-1
 819 2867 l 1,3,-1
 0 2867 l 1,4,-1
 0 3276 l 1,5,-1
 2048 3276 l 1,6,-1
 2048 2867 l 1,7,-1
 1228 2867 l 1,8,-1
 1228 409 l 1,9,-1
 2048 409 l 1,10,-1
 2048 0 l 1,11,-1
 0 0 l 1,0,-1
409 3686 m 1,12,-1
 409 4096 l 1,13,-1
 819 4096 l 1,14,-1
 819 3686 l 1,15,-1
 409 3686 l 1,12,-1
819 4096 m 1,16,-1
 819 4505 l 1,17,-1
 1638 4505 l 1,18,-1
 1638 4096 l 1,19,-1
 819 4096 l 1,16,-1
EndSplineSet
EndChar

StartChar: Icircumflex
Encoding: 206 206 133
Width: 2457
Flags: W
LayerCount: 2
Fore
SplineSet
0 0 m 1,0,-1
 0 409 l 1,1,-1
 819 409 l 1,2,-1
 819 2867 l 1,3,-1
 0 2867 l 1,4,-1
 0 3276 l 1,5,-1
 2048 3276 l 1,6,-1
 2048 2867 l 1,7,-1
 1228 2867 l 1,8,-1
 1228 409 l 1,9,-1
 2048 409 l 1,10,-1
 2048 0 l 1,11,-1
 0 0 l 1,0,-1
409 3686 m 1,12,-1
 409 4096 l 1,13,-1
 819 4096 l 1,14,-1
 819 3686 l 1,15,-1
 409 3686 l 1,12,-1
1228 3686 m 1,16,-1
 1228 4096 l 1,17,-1
 1638 4096 l 1,18,-1
 1638 3686 l 1,19,-1
 1228 3686 l 1,16,-1
819 4096 m 1,20,-1
 819 4505 l 1,21,-1
 1228 4505 l 1,22,-1
 1228 4096 l 1,23,-1
 819 4096 l 1,20,-1
EndSplineSet
EndChar

StartChar: Idieresis
Encoding: 207 207 134
Width: 2457
Flags: W
LayerCount: 2
Fore
SplineSet
0 0 m 1,0,-1
 0 409 l 1,1,-1
 819 409 l 1,2,-1
 819 2867 l 1,3,-1
 0 2867 l 1,4,-1
 0 3276 l 1,5,-1
 2048 3276 l 1,6,-1
 2048 2867 l 1,7,-1
 1228 2867 l 1,8,-1
 1228 409 l 1,9,-1
 2048 409 l 1,10,-1
 2048 0 l 1,11,-1
 0 0 l 1,0,-1
409 3686 m 1,12,-1
 409 4096 l 1,13,-1
 819 4096 l 1,14,-1
 819 3686 l 1,15,-1
 409 3686 l 1,12,-1
1228 3686 m 1,16,-1
 1228 4096 l 1,17,-1
 1638 4096 l 1,18,-1
 1638 3686 l 1,19,-1
 1228 3686 l 1,16,-1
EndSplineSet
EndChar

StartChar: Eth
Encoding: 208 208 135
Width: 2457
Flags: W
LayerCount: 2
Fore
SplineSet
1638 409 m 1,0,-1
 1638 2867 l 1,1,-1
 2048 2867 l 1,2,-1
 2048 409 l 1,3,-1
 1638 409 l 1,0,-1
0 0 m 1,4,-1
 0 1638 l 1,5,-1
 -409 1638 l 1,6,-1
 -409 2048 l 1,7,-1
 0 2048 l 1,8,-1
 0 3276 l 1,9,-1
 1638 3276 l 1,10,-1
 1638 2867 l 1,11,-1
 409 2867 l 1,12,-1
 409 2048 l 1,13,-1
 819 2048 l 1,14,-1
 819 1638 l 1,15,-1
 409 1638 l 1,16,-1
 409 409 l 1,17,-1
 1638 409 l 1,18,-1
 1638 0 l 1,19,-1
 0 0 l 1,4,-1
EndSplineSet
EndChar

StartChar: Ntilde
Encoding: 209 209 136
Width: 2867
Flags: W
LayerCount: 2
Fore
SplineSet
819 1638 m 1,0,-1
 819 2048 l 1,1,-1
 1228 2048 l 1,2,-1
 1228 1638 l 1,3,-1
 819 1638 l 1,0,-1
0 0 m 1,4,-1
 0 3276 l 1,5,-1
 409 3276 l 1,6,-1
 409 2867 l 1,7,-1
 819 2867 l 1,8,-1
 819 2048 l 1,9,-1
 409 2048 l 1,10,-1
 409 0 l 1,11,-1
 0 0 l 1,4,-1
1638 0 m 1,12,-1
 1638 819 l 1,13,-1
 1228 819 l 1,14,-1
 1228 1638 l 1,15,-1
 1638 1638 l 1,16,-1
 1638 3276 l 1,17,-1
 2048 3276 l 1,18,-1
 2048 0 l 1,19,-1
 1638 0 l 1,12,-1
0 3686 m 1,20,-1
 0 4096 l 1,21,-1
 409 4096 l 1,22,-1
 409 3686 l 1,23,-1
 0 3686 l 1,20,-1
1228 3686 m 1,24,-1
 1228 4096 l 1,25,-1
 2048 4096 l 1,26,-1
 2048 3686 l 1,27,-1
 1228 3686 l 1,24,-1
409 4096 m 1,28,-1
 409 4505 l 1,29,-1
 1228 4505 l 1,30,-1
 1228 4096 l 1,31,-1
 409 4096 l 1,28,-1
2048 4096 m 1,32,-1
 2048 4505 l 1,33,-1
 2457 4505 l 1,34,-1
 2457 4096 l 1,35,-1
 2048 4096 l 1,32,-1
EndSplineSet
EndChar

StartChar: Ograve
Encoding: 210 210 137
Width: 2457
Flags: W
LayerCount: 2
Fore
SplineSet
409 0 m 1,0,-1
 409 409 l 1,1,-1
 1638 409 l 1,2,-1
 1638 0 l 1,3,-1
 409 0 l 1,0,-1
0 409 m 1,4,-1
 0 2867 l 1,5,-1
 409 2867 l 1,6,-1
 409 409 l 1,7,-1
 0 409 l 1,4,-1
1638 409 m 1,8,-1
 1638 2867 l 1,9,-1
 2048 2867 l 1,10,-1
 2048 409 l 1,11,-1
 1638 409 l 1,8,-1
409 2867 m 1,12,-1
 409 3276 l 1,13,-1
 1638 3276 l 1,14,-1
 1638 2867 l 1,15,-1
 409 2867 l 1,12,-1
1228 3686 m 1,16,-1
 1228 4096 l 1,17,-1
 1638 4096 l 1,18,-1
 1638 3686 l 1,19,-1
 1228 3686 l 1,16,-1
409 4096 m 1,20,-1
 409 4505 l 1,21,-1
 1228 4505 l 1,22,-1
 1228 4096 l 1,23,-1
 409 4096 l 1,20,-1
EndSplineSet
EndChar

StartChar: Oacute
Encoding: 211 211 138
Width: 2457
Flags: W
LayerCount: 2
Fore
SplineSet
409 0 m 1,0,-1
 409 409 l 1,1,-1
 1638 409 l 1,2,-1
 1638 0 l 1,3,-1
 409 0 l 1,0,-1
0 409 m 1,4,-1
 0 2867 l 1,5,-1
 409 2867 l 1,6,-1
 409 409 l 1,7,-1
 0 409 l 1,4,-1
1638 409 m 1,8,-1
 1638 2867 l 1,9,-1
 2048 2867 l 1,10,-1
 2048 409 l 1,11,-1
 1638 409 l 1,8,-1
409 2867 m 1,12,-1
 409 3276 l 1,13,-1
 1638 3276 l 1,14,-1
 1638 2867 l 1,15,-1
 409 2867 l 1,12,-1
409 3686 m 1,16,-1
 409 4096 l 1,17,-1
 819 4096 l 1,18,-1
 819 3686 l 1,19,-1
 409 3686 l 1,16,-1
819 4096 m 1,20,-1
 819 4505 l 1,21,-1
 1638 4505 l 1,22,-1
 1638 4096 l 1,23,-1
 819 4096 l 1,20,-1
EndSplineSet
EndChar

StartChar: Ocircumflex
Encoding: 212 212 139
Width: 2457
Flags: W
LayerCount: 2
Fore
SplineSet
409 0 m 1,0,-1
 409 409 l 1,1,-1
 1638 409 l 1,2,-1
 1638 0 l 1,3,-1
 409 0 l 1,0,-1
0 409 m 1,4,-1
 0 2867 l 1,5,-1
 409 2867 l 1,6,-1
 409 409 l 1,7,-1
 0 409 l 1,4,-1
1638 409 m 1,8,-1
 1638 2867 l 1,9,-1
 2048 2867 l 1,10,-1
 2048 409 l 1,11,-1
 1638 409 l 1,8,-1
409 2867 m 1,12,-1
 409 3276 l 1,13,-1
 1638 3276 l 1,14,-1
 1638 2867 l 1,15,-1
 409 2867 l 1,12,-1
409 3686 m 1,16,-1
 409 4096 l 1,17,-1
 819 4096 l 1,18,-1
 819 3686 l 1,19,-1
 409 3686 l 1,16,-1
1228 3686 m 1,20,-1
 1228 4096 l 1,21,-1
 1638 4096 l 1,22,-1
 1638 3686 l 1,23,-1
 1228 3686 l 1,20,-1
819 4096 m 1,24,-1
 819 4505 l 1,25,-1
 1228 4505 l 1,26,-1
 1228 4096 l 1,27,-1
 819 4096 l 1,24,-1
EndSplineSet
EndChar

StartChar: Otilde
Encoding: 213 213 140
Width: 2867
Flags: W
LayerCount: 2
Fore
SplineSet
409 0 m 1,0,-1
 409 409 l 1,1,-1
 1638 409 l 1,2,-1
 1638 0 l 1,3,-1
 409 0 l 1,0,-1
0 409 m 1,4,-1
 0 2867 l 1,5,-1
 409 2867 l 1,6,-1
 409 409 l 1,7,-1
 0 409 l 1,4,-1
1638 409 m 1,8,-1
 1638 2867 l 1,9,-1
 2048 2867 l 1,10,-1
 2048 409 l 1,11,-1
 1638 409 l 1,8,-1
409 2867 m 1,12,-1
 409 3276 l 1,13,-1
 1638 3276 l 1,14,-1
 1638 2867 l 1,15,-1
 409 2867 l 1,12,-1
0 3686 m 1,16,-1
 0 4096 l 1,17,-1
 409 4096 l 1,18,-1
 409 3686 l 1,19,-1
 0 3686 l 1,16,-1
1228 3686 m 1,20,-1
 1228 4096 l 1,21,-1
 2048 4096 l 1,22,-1
 2048 3686 l 1,23,-1
 1228 3686 l 1,20,-1
409 4096 m 1,24,-1
 409 4505 l 1,25,-1
 1228 4505 l 1,26,-1
 1228 4096 l 1,27,-1
 409 4096 l 1,24,-1
2048 4096 m 1,28,-1
 2048 4505 l 1,29,-1
 2457 4505 l 1,30,-1
 2457 4096 l 1,31,-1
 2048 4096 l 1,28,-1
EndSplineSet
EndChar

StartChar: Odieresis
Encoding: 214 214 141
Width: 2457
Flags: W
LayerCount: 2
Fore
SplineSet
409 0 m 1,0,-1
 409 409 l 1,1,-1
 1638 409 l 1,2,-1
 1638 0 l 1,3,-1
 409 0 l 1,0,-1
0 409 m 1,4,-1
 0 2867 l 1,5,-1
 409 2867 l 1,6,-1
 409 409 l 1,7,-1
 0 409 l 1,4,-1
1638 409 m 1,8,-1
 1638 2867 l 1,9,-1
 2048 2867 l 1,10,-1
 2048 409 l 1,11,-1
 1638 409 l 1,8,-1
409 2867 m 1,12,-1
 409 3276 l 1,13,-1
 1638 3276 l 1,14,-1
 1638 2867 l 1,15,-1
 409 2867 l 1,12,-1
409 3686 m 1,16,-1
 409 4096 l 1,17,-1
 819 4096 l 1,18,-1
 819 3686 l 1,19,-1
 409 3686 l 1,16,-1
1228 3686 m 1,20,-1
 1228 4096 l 1,21,-1
 1638 4096 l 1,22,-1
 1638 3686 l 1,23,-1
 1228 3686 l 1,20,-1
EndSplineSet
EndChar

StartChar: multiply
Encoding: 215 215 142
Width: 2457
Flags: W
LayerCount: 2
Fore
SplineSet
0 819 m 1,0,-1
 0 1228 l 1,1,-1
 409 1228 l 1,2,-1
 409 819 l 1,3,-1
 0 819 l 1,0,-1
1638 819 m 1,4,-1
 1638 1228 l 1,5,-1
 2048 1228 l 1,6,-1
 2048 819 l 1,7,-1
 1638 819 l 1,4,-1
409 1228 m 1,8,-1
 409 1638 l 1,9,-1
 819 1638 l 1,10,-1
 819 1228 l 1,11,-1
 409 1228 l 1,8,-1
1228 1228 m 1,12,-1
 1228 1638 l 1,13,-1
 1638 1638 l 1,14,-1
 1638 1228 l 1,15,-1
 1228 1228 l 1,12,-1
819 1638 m 1,16,-1
 819 2048 l 1,17,-1
 1228 2048 l 1,18,-1
 1228 1638 l 1,19,-1
 819 1638 l 1,16,-1
409 2048 m 1,20,-1
 409 2457 l 1,21,-1
 819 2457 l 1,22,-1
 819 2048 l 1,23,-1
 409 2048 l 1,20,-1
1228 2048 m 1,24,-1
 1228 2457 l 1,25,-1
 1638 2457 l 1,26,-1
 1638 2048 l 1,27,-1
 1228 2048 l 1,24,-1
0 2457 m 1,28,-1
 0 2867 l 1,29,-1
 409 2867 l 1,30,-1
 409 2457 l 1,31,-1
 0 2457 l 1,28,-1
1638 2457 m 1,32,-1
 1638 2867 l 1,33,-1
 2048 2867 l 1,34,-1
 2048 2457 l 1,35,-1
 1638 2457 l 1,32,-1
EndSplineSet
EndChar

StartChar: Oslash
Encoding: 216 216 143
Width: 3276
Flags: W
LayerCount: 2
Fore
SplineSet
0 0 m 1,0,-1
 0 409 l 1,1,-1
 409 409 l 1,2,-1
 409 0 l 1,3,-1
 0 0 l 1,0,-1
819 0 m 1,4,-1
 819 409 l 1,5,-1
 2048 409 l 1,6,-1
 2048 0 l 1,7,-1
 819 0 l 1,4,-1
1228 1228 m 1,8,-1
 1228 2048 l 1,9,-1
 1638 2048 l 1,10,-1
 1638 1228 l 1,11,-1
 1228 1228 l 1,8,-1
409 409 m 1,12,-1
 409 2867 l 1,13,-1
 819 2867 l 1,14,-1
 819 1228 l 1,15,-1
 1228 1228 l 1,16,-1
 1228 819 l 1,17,-1
 819 819 l 1,18,-1
 819 409 l 1,19,-1
 409 409 l 1,12,-1
2048 409 m 1,20,-1
 2048 2048 l 1,21,-1
 1638 2048 l 1,22,-1
 1638 2457 l 1,23,-1
 2048 2457 l 1,24,-1
 2048 2867 l 1,25,-1
 2457 2867 l 1,26,-1
 2457 409 l 1,27,-1
 2048 409 l 1,20,-1
819 2867 m 1,28,-1
 819 3276 l 1,29,-1
 2048 3276 l 1,30,-1
 2048 2867 l 1,31,-1
 819 2867 l 1,28,-1
2457 2867 m 1,32,-1
 2457 3276 l 1,33,-1
 2867 3276 l 1,34,-1
 2867 2867 l 1,35,-1
 2457 2867 l 1,32,-1
EndSplineSet
EndChar

StartChar: Ugrave
Encoding: 217 217 144
Width: 2457
Flags: W
LayerCount: 2
Fore
SplineSet
409 0 m 1,0,-1
 409 409 l 1,1,-1
 1638 409 l 1,2,-1
 1638 0 l 1,3,-1
 409 0 l 1,0,-1
0 409 m 1,4,-1
 0 3276 l 1,5,-1
 409 3276 l 1,6,-1
 409 409 l 1,7,-1
 0 409 l 1,4,-1
1638 409 m 1,8,-1
 1638 3276 l 1,9,-1
 2048 3276 l 1,10,-1
 2048 409 l 1,11,-1
 1638 409 l 1,8,-1
1228 3686 m 1,12,-1
 1228 4096 l 1,13,-1
 1638 4096 l 1,14,-1
 1638 3686 l 1,15,-1
 1228 3686 l 1,12,-1
409 4096 m 1,16,-1
 409 4505 l 1,17,-1
 1228 4505 l 1,18,-1
 1228 4096 l 1,19,-1
 409 4096 l 1,16,-1
EndSplineSet
EndChar

StartChar: Uacute
Encoding: 218 218 145
Width: 2457
Flags: W
LayerCount: 2
Fore
SplineSet
409 0 m 1,0,-1
 409 409 l 1,1,-1
 1638 409 l 1,2,-1
 1638 0 l 1,3,-1
 409 0 l 1,0,-1
0 409 m 1,4,-1
 0 3276 l 1,5,-1
 409 3276 l 1,6,-1
 409 409 l 1,7,-1
 0 409 l 1,4,-1
1638 409 m 1,8,-1
 1638 3276 l 1,9,-1
 2048 3276 l 1,10,-1
 2048 409 l 1,11,-1
 1638 409 l 1,8,-1
409 3686 m 1,12,-1
 409 4096 l 1,13,-1
 819 4096 l 1,14,-1
 819 3686 l 1,15,-1
 409 3686 l 1,12,-1
819 4096 m 1,16,-1
 819 4505 l 1,17,-1
 1638 4505 l 1,18,-1
 1638 4096 l 1,19,-1
 819 4096 l 1,16,-1
EndSplineSet
EndChar

StartChar: Ucircumflex
Encoding: 219 219 146
Width: 2457
Flags: W
LayerCount: 2
Fore
SplineSet
409 0 m 1,0,-1
 409 409 l 1,1,-1
 1638 409 l 1,2,-1
 1638 0 l 1,3,-1
 409 0 l 1,0,-1
0 409 m 1,4,-1
 0 3276 l 1,5,-1
 409 3276 l 1,6,-1
 409 409 l 1,7,-1
 0 409 l 1,4,-1
1638 409 m 1,8,-1
 1638 3276 l 1,9,-1
 2048 3276 l 1,10,-1
 2048 409 l 1,11,-1
 1638 409 l 1,8,-1
409 3686 m 1,12,-1
 409 4096 l 1,13,-1
 819 4096 l 1,14,-1
 819 3686 l 1,15,-1
 409 3686 l 1,12,-1
1228 3686 m 1,16,-1
 1228 4096 l 1,17,-1
 1638 4096 l 1,18,-1
 1638 3686 l 1,19,-1
 1228 3686 l 1,16,-1
819 4096 m 1,20,-1
 819 4505 l 1,21,-1
 1228 4505 l 1,22,-1
 1228 4096 l 1,23,-1
 819 4096 l 1,20,-1
EndSplineSet
EndChar

StartChar: Udieresis
Encoding: 220 220 147
Width: 2457
Flags: W
LayerCount: 2
Fore
SplineSet
409 0 m 1,0,-1
 409 409 l 1,1,-1
 1638 409 l 1,2,-1
 1638 0 l 1,3,-1
 409 0 l 1,0,-1
0 409 m 1,4,-1
 0 3276 l 1,5,-1
 409 3276 l 1,6,-1
 409 409 l 1,7,-1
 0 409 l 1,4,-1
1638 409 m 1,8,-1
 1638 3276 l 1,9,-1
 2048 3276 l 1,10,-1
 2048 409 l 1,11,-1
 1638 409 l 1,8,-1
409 3686 m 1,12,-1
 409 4096 l 1,13,-1
 819 4096 l 1,14,-1
 819 3686 l 1,15,-1
 409 3686 l 1,12,-1
1228 3686 m 1,16,-1
 1228 4096 l 1,17,-1
 1638 4096 l 1,18,-1
 1638 3686 l 1,19,-1
 1228 3686 l 1,16,-1
EndSplineSet
EndChar

StartChar: Yacute
Encoding: 221 221 148
Width: 2457
Flags: W
LayerCount: 2
Fore
SplineSet
819 0 m 1,0,-1
 819 1638 l 1,1,-1
 1228 1638 l 1,2,-1
 1228 0 l 1,3,-1
 819 0 l 1,0,-1
409 1638 m 1,4,-1
 409 2457 l 1,5,-1
 819 2457 l 1,6,-1
 819 1638 l 1,7,-1
 409 1638 l 1,4,-1
1228 1638 m 1,8,-1
 1228 2457 l 1,9,-1
 1638 2457 l 1,10,-1
 1638 1638 l 1,11,-1
 1228 1638 l 1,8,-1
0 2457 m 1,12,-1
 0 3276 l 1,13,-1
 409 3276 l 1,14,-1
 409 2457 l 1,15,-1
 0 2457 l 1,12,-1
1638 2457 m 1,16,-1
 1638 3276 l 1,17,-1
 2048 3276 l 1,18,-1
 2048 2457 l 1,19,-1
 1638 2457 l 1,16,-1
409 3686 m 1,20,-1
 409 4096 l 1,21,-1
 819 4096 l 1,22,-1
 819 3686 l 1,23,-1
 409 3686 l 1,20,-1
819 4096 m 1,24,-1
 819 4505 l 1,25,-1
 1638 4505 l 1,26,-1
 1638 4096 l 1,27,-1
 819 4096 l 1,24,-1
EndSplineSet
EndChar

StartChar: Thorn
Encoding: 222 222 149
Width: 2457
Flags: W
LayerCount: 2
Fore
SplineSet
1638 819 m 1,0,-1
 1638 2048 l 1,1,-1
 2048 2048 l 1,2,-1
 2048 819 l 1,3,-1
 1638 819 l 1,0,-1
0 0 m 1,4,-1
 0 3276 l 1,5,-1
 409 3276 l 1,6,-1
 409 2457 l 1,7,-1
 1638 2457 l 1,8,-1
 1638 2048 l 1,9,-1
 409 2048 l 1,10,-1
 409 819 l 1,11,-1
 1638 819 l 1,12,-1
 1638 409 l 1,13,-1
 409 409 l 1,14,-1
 409 0 l 1,15,-1
 0 0 l 1,4,-1
EndSplineSet
EndChar

StartChar: germandbls
Encoding: 223 223 150
Width: 2457
Flags: W
LayerCount: 2
Fore
SplineSet
819 0 m 1,0,-1
 819 409 l 1,1,-1
 1638 409 l 1,2,-1
 1638 0 l 1,3,-1
 819 0 l 1,0,-1
1638 409 m 1,4,-1
 1638 1228 l 1,5,-1
 2048 1228 l 1,6,-1
 2048 409 l 1,7,-1
 1638 409 l 1,4,-1
1228 1228 m 1,8,-1
 1228 1638 l 1,9,-1
 1638 1638 l 1,10,-1
 1638 1228 l 1,11,-1
 1228 1228 l 1,8,-1
819 1638 m 1,12,-1
 819 2048 l 1,13,-1
 1228 2048 l 1,14,-1
 1228 1638 l 1,15,-1
 819 1638 l 1,12,-1
1228 2048 m 1,16,-1
 1228 2457 l 1,17,-1
 1638 2457 l 1,18,-1
 1638 2048 l 1,19,-1
 1228 2048 l 1,16,-1
0 0 m 1,20,-1
 0 2867 l 1,21,-1
 409 2867 l 1,22,-1
 409 0 l 1,23,-1
 0 0 l 1,20,-1
1638 2457 m 1,24,-1
 1638 2867 l 1,25,-1
 2048 2867 l 1,26,-1
 2048 2457 l 1,27,-1
 1638 2457 l 1,24,-1
409 2867 m 1,28,-1
 409 3276 l 1,29,-1
 1638 3276 l 1,30,-1
 1638 2867 l 1,31,-1
 409 2867 l 1,28,-1
EndSplineSet
EndChar

StartChar: agrave
Encoding: 224 224 151
Width: 2457
Flags: W
LayerCount: 2
Fore
SplineSet
409 0 m 1,0,-1
 409 409 l 1,1,-1
 1228 409 l 1,2,-1
 1228 0 l 1,3,-1
 409 0 l 1,0,-1
0 409 m 1,4,-1
 0 1638 l 1,5,-1
 409 1638 l 1,6,-1
 409 409 l 1,7,-1
 0 409 l 1,4,-1
1638 0 m 1,8,-1
 1638 409 l 1,9,-1
 1228 409 l 1,10,-1
 1228 819 l 1,11,-1
 1638 819 l 1,12,-1
 1638 1638 l 1,13,-1
 2048 1638 l 1,14,-1
 2048 0 l 1,15,-1
 1638 0 l 1,8,-1
409 1638 m 1,16,-1
 409 2048 l 1,17,-1
 1638 2048 l 1,18,-1
 1638 1638 l 1,19,-1
 409 1638 l 1,16,-1
1228 2457 m 1,20,-1
 1228 2867 l 1,21,-1
 1638 2867 l 1,22,-1
 1638 2457 l 1,23,-1
 1228 2457 l 1,20,-1
409 2867 m 1,24,-1
 409 3276 l 1,25,-1
 1228 3276 l 1,26,-1
 1228 2867 l 1,27,-1
 409 2867 l 1,24,-1
EndSplineSet
EndChar

StartChar: aacute
Encoding: 225 225 152
Width: 2457
Flags: W
LayerCount: 2
Fore
SplineSet
409 0 m 1,0,-1
 409 409 l 1,1,-1
 1228 409 l 1,2,-1
 1228 0 l 1,3,-1
 409 0 l 1,0,-1
0 409 m 1,4,-1
 0 1638 l 1,5,-1
 409 1638 l 1,6,-1
 409 409 l 1,7,-1
 0 409 l 1,4,-1
1638 0 m 1,8,-1
 1638 409 l 1,9,-1
 1228 409 l 1,10,-1
 1228 819 l 1,11,-1
 1638 819 l 1,12,-1
 1638 1638 l 1,13,-1
 2048 1638 l 1,14,-1
 2048 0 l 1,15,-1
 1638 0 l 1,8,-1
409 1638 m 1,16,-1
 409 2048 l 1,17,-1
 1638 2048 l 1,18,-1
 1638 1638 l 1,19,-1
 409 1638 l 1,16,-1
409 2457 m 1,20,-1
 409 2867 l 1,21,-1
 819 2867 l 1,22,-1
 819 2457 l 1,23,-1
 409 2457 l 1,20,-1
819 2867 m 1,24,-1
 819 3276 l 1,25,-1
 1638 3276 l 1,26,-1
 1638 2867 l 1,27,-1
 819 2867 l 1,24,-1
EndSplineSet
EndChar

StartChar: acircumflex
Encoding: 226 226 153
Width: 2457
Flags: W
LayerCount: 2
Fore
SplineSet
409 0 m 1,0,-1
 409 409 l 1,1,-1
 1228 409 l 1,2,-1
 1228 0 l 1,3,-1
 409 0 l 1,0,-1
0 409 m 1,4,-1
 0 1638 l 1,5,-1
 409 1638 l 1,6,-1
 409 409 l 1,7,-1
 0 409 l 1,4,-1
1638 0 m 1,8,-1
 1638 409 l 1,9,-1
 1228 409 l 1,10,-1
 1228 819 l 1,11,-1
 1638 819 l 1,12,-1
 1638 1638 l 1,13,-1
 2048 1638 l 1,14,-1
 2048 0 l 1,15,-1
 1638 0 l 1,8,-1
409 1638 m 1,16,-1
 409 2048 l 1,17,-1
 1638 2048 l 1,18,-1
 1638 1638 l 1,19,-1
 409 1638 l 1,16,-1
409 2457 m 1,20,-1
 409 2867 l 1,21,-1
 819 2867 l 1,22,-1
 819 2457 l 1,23,-1
 409 2457 l 1,20,-1
1228 2457 m 1,24,-1
 1228 2867 l 1,25,-1
 1638 2867 l 1,26,-1
 1638 2457 l 1,27,-1
 1228 2457 l 1,24,-1
819 2867 m 1,28,-1
 819 3276 l 1,29,-1
 1228 3276 l 1,30,-1
 1228 2867 l 1,31,-1
 819 2867 l 1,28,-1
EndSplineSet
EndChar

StartChar: atilde
Encoding: 227 227 154
Width: 2867
Flags: W
LayerCount: 2
Fore
SplineSet
409 0 m 1,0,-1
 409 409 l 1,1,-1
 1228 409 l 1,2,-1
 1228 0 l 1,3,-1
 409 0 l 1,0,-1
0 409 m 1,4,-1
 0 1638 l 1,5,-1
 409 1638 l 1,6,-1
 409 409 l 1,7,-1
 0 409 l 1,4,-1
1638 0 m 1,8,-1
 1638 409 l 1,9,-1
 1228 409 l 1,10,-1
 1228 819 l 1,11,-1
 1638 819 l 1,12,-1
 1638 1638 l 1,13,-1
 2048 1638 l 1,14,-1
 2048 0 l 1,15,-1
 1638 0 l 1,8,-1
409 1638 m 1,16,-1
 409 2048 l 1,17,-1
 1638 2048 l 1,18,-1
 1638 1638 l 1,19,-1
 409 1638 l 1,16,-1
0 2457 m 1,20,-1
 0 2867 l 1,21,-1
 409 2867 l 1,22,-1
 409 2457 l 1,23,-1
 0 2457 l 1,20,-1
1228 2457 m 1,24,-1
 1228 2867 l 1,25,-1
 2048 2867 l 1,26,-1
 2048 2457 l 1,27,-1
 1228 2457 l 1,24,-1
409 2867 m 1,28,-1
 409 3276 l 1,29,-1
 1228 3276 l 1,30,-1
 1228 2867 l 1,31,-1
 409 2867 l 1,28,-1
2048 2867 m 1,32,-1
 2048 3276 l 1,33,-1
 2457 3276 l 1,34,-1
 2457 2867 l 1,35,-1
 2048 2867 l 1,32,-1
EndSplineSet
EndChar

StartChar: adieresis
Encoding: 228 228 155
Width: 2457
Flags: W
LayerCount: 2
Fore
SplineSet
409 0 m 1,0,-1
 409 409 l 1,1,-1
 1228 409 l 1,2,-1
 1228 0 l 1,3,-1
 409 0 l 1,0,-1
0 409 m 1,4,-1
 0 1638 l 1,5,-1
 409 1638 l 1,6,-1
 409 409 l 1,7,-1
 0 409 l 1,4,-1
1638 0 m 1,8,-1
 1638 409 l 1,9,-1
 1228 409 l 1,10,-1
 1228 819 l 1,11,-1
 1638 819 l 1,12,-1
 1638 1638 l 1,13,-1
 2048 1638 l 1,14,-1
 2048 0 l 1,15,-1
 1638 0 l 1,8,-1
409 1638 m 1,16,-1
 409 2048 l 1,17,-1
 1638 2048 l 1,18,-1
 1638 1638 l 1,19,-1
 409 1638 l 1,16,-1
409 2457 m 1,20,-1
 409 2867 l 1,21,-1
 819 2867 l 1,22,-1
 819 2457 l 1,23,-1
 409 2457 l 1,20,-1
1228 2457 m 1,24,-1
 1228 2867 l 1,25,-1
 1638 2867 l 1,26,-1
 1638 2457 l 1,27,-1
 1228 2457 l 1,24,-1
EndSplineSet
EndChar

StartChar: aring
Encoding: 229 229 156
Width: 2457
Flags: W
LayerCount: 2
Fore
SplineSet
409 0 m 1,0,-1
 409 409 l 1,1,-1
 1228 409 l 1,2,-1
 1228 0 l 1,3,-1
 409 0 l 1,0,-1
0 409 m 1,4,-1
 0 1638 l 1,5,-1
 409 1638 l 1,6,-1
 409 409 l 1,7,-1
 0 409 l 1,4,-1
1638 0 m 1,8,-1
 1638 409 l 1,9,-1
 1228 409 l 1,10,-1
 1228 819 l 1,11,-1
 1638 819 l 1,12,-1
 1638 1638 l 1,13,-1
 2048 1638 l 1,14,-1
 2048 0 l 1,15,-1
 1638 0 l 1,8,-1
409 1638 m 1,16,-1
 409 2048 l 1,17,-1
 1638 2048 l 1,18,-1
 1638 1638 l 1,19,-1
 409 1638 l 1,16,-1
819 2457 m 1,20,-1
 819 2867 l 1,21,-1
 1228 2867 l 1,22,-1
 1228 2457 l 1,23,-1
 819 2457 l 1,20,-1
409 2867 m 1,24,-1
 409 3276 l 1,25,-1
 819 3276 l 1,26,-1
 819 2867 l 1,27,-1
 409 2867 l 1,24,-1
1228 2867 m 1,28,-1
 1228 3276 l 1,29,-1
 1638 3276 l 1,30,-1
 1638 2867 l 1,31,-1
 1228 2867 l 1,28,-1
819 3276 m 1,32,-1
 819 3686 l 1,33,-1
 1228 3686 l 1,34,-1
 1228 3276 l 1,35,-1
 819 3276 l 1,32,-1
EndSplineSet
EndChar

StartChar: ae
Encoding: 230 230 157
Width: 2867
Flags: W
LayerCount: 2
Fore
SplineSet
409 0 m 1,0,-1
 409 409 l 1,1,-1
 819 409 l 1,2,-1
 819 0 l 1,3,-1
 409 0 l 1,0,-1
0 409 m 1,4,-1
 0 1638 l 1,5,-1
 409 1638 l 1,6,-1
 409 409 l 1,7,-1
 0 409 l 1,4,-1
1228 0 m 1,8,-1
 1228 409 l 1,9,-1
 819 409 l 1,10,-1
 819 819 l 1,11,-1
 1228 819 l 1,12,-1
 1228 1638 l 1,13,-1
 409 1638 l 1,14,-1
 409 2048 l 1,15,-1
 2048 2048 l 1,16,-1
 2048 1638 l 1,17,-1
 1638 1638 l 1,18,-1
 1638 1228 l 1,19,-1
 2048 1228 l 1,20,-1
 2048 1638 l 1,21,-1
 2457 1638 l 1,22,-1
 2457 819 l 1,23,-1
 1638 819 l 1,24,-1
 1638 409 l 1,25,-1
 2457 409 l 1,26,-1
 2457 0 l 1,27,-1
 1228 0 l 1,8,-1
EndSplineSet
EndChar

StartChar: egrave
Encoding: 232 232 158
Width: 2457
Flags: W
LayerCount: 2
Fore
SplineSet
409 0 m 1,0,-1
 409 409 l 1,1,-1
 2048 409 l 1,2,-1
 2048 0 l 1,3,-1
 409 0 l 1,0,-1
0 409 m 1,4,-1
 0 1638 l 1,5,-1
 409 1638 l 1,6,-1
 409 1228 l 1,7,-1
 1638 1228 l 1,8,-1
 1638 1638 l 1,9,-1
 2048 1638 l 1,10,-1
 2048 819 l 1,11,-1
 409 819 l 1,12,-1
 409 409 l 1,13,-1
 0 409 l 1,4,-1
409 1638 m 1,14,-1
 409 2048 l 1,15,-1
 1638 2048 l 1,16,-1
 1638 1638 l 1,17,-1
 409 1638 l 1,14,-1
1228 2457 m 1,18,-1
 1228 2867 l 1,19,-1
 1638 2867 l 1,20,-1
 1638 2457 l 1,21,-1
 1228 2457 l 1,18,-1
409 2867 m 1,22,-1
 409 3276 l 1,23,-1
 1228 3276 l 1,24,-1
 1228 2867 l 1,25,-1
 409 2867 l 1,22,-1
EndSplineSet
EndChar

StartChar: eacute
Encoding: 233 233 159
Width: 2457
Flags: W
LayerCount: 2
Fore
SplineSet
409 0 m 1,0,-1
 409 409 l 1,1,-1
 2048 409 l 1,2,-1
 2048 0 l 1,3,-1
 409 0 l 1,0,-1
0 409 m 1,4,-1
 0 1638 l 1,5,-1
 409 1638 l 1,6,-1
 409 1228 l 1,7,-1
 1638 1228 l 1,8,-1
 1638 1638 l 1,9,-1
 2048 1638 l 1,10,-1
 2048 819 l 1,11,-1
 409 819 l 1,12,-1
 409 409 l 1,13,-1
 0 409 l 1,4,-1
409 1638 m 1,14,-1
 409 2048 l 1,15,-1
 1638 2048 l 1,16,-1
 1638 1638 l 1,17,-1
 409 1638 l 1,14,-1
409 2457 m 1,18,-1
 409 2867 l 1,19,-1
 819 2867 l 1,20,-1
 819 2457 l 1,21,-1
 409 2457 l 1,18,-1
819 2867 m 1,22,-1
 819 3276 l 1,23,-1
 1638 3276 l 1,24,-1
 1638 2867 l 1,25,-1
 819 2867 l 1,22,-1
EndSplineSet
EndChar

StartChar: ecircumflex
Encoding: 234 234 160
Width: 2457
Flags: W
LayerCount: 2
Fore
SplineSet
409 0 m 1,0,-1
 409 409 l 1,1,-1
 2048 409 l 1,2,-1
 2048 0 l 1,3,-1
 409 0 l 1,0,-1
0 409 m 1,4,-1
 0 1638 l 1,5,-1
 409 1638 l 1,6,-1
 409 1228 l 1,7,-1
 1638 1228 l 1,8,-1
 1638 1638 l 1,9,-1
 2048 1638 l 1,10,-1
 2048 819 l 1,11,-1
 409 819 l 1,12,-1
 409 409 l 1,13,-1
 0 409 l 1,4,-1
409 1638 m 1,14,-1
 409 2048 l 1,15,-1
 1638 2048 l 1,16,-1
 1638 1638 l 1,17,-1
 409 1638 l 1,14,-1
409 2457 m 1,18,-1
 409 2867 l 1,19,-1
 819 2867 l 1,20,-1
 819 2457 l 1,21,-1
 409 2457 l 1,18,-1
1228 2457 m 1,22,-1
 1228 2867 l 1,23,-1
 1638 2867 l 1,24,-1
 1638 2457 l 1,25,-1
 1228 2457 l 1,22,-1
819 2867 m 1,26,-1
 819 3276 l 1,27,-1
 1228 3276 l 1,28,-1
 1228 2867 l 1,29,-1
 819 2867 l 1,26,-1
EndSplineSet
EndChar

StartChar: edieresis
Encoding: 235 235 161
Width: 2457
Flags: W
LayerCount: 2
Fore
SplineSet
409 0 m 1,0,-1
 409 409 l 1,1,-1
 2048 409 l 1,2,-1
 2048 0 l 1,3,-1
 409 0 l 1,0,-1
0 409 m 1,4,-1
 0 1638 l 1,5,-1
 409 1638 l 1,6,-1
 409 1228 l 1,7,-1
 1638 1228 l 1,8,-1
 1638 1638 l 1,9,-1
 2048 1638 l 1,10,-1
 2048 819 l 1,11,-1
 409 819 l 1,12,-1
 409 409 l 1,13,-1
 0 409 l 1,4,-1
409 1638 m 1,14,-1
 409 2048 l 1,15,-1
 1638 2048 l 1,16,-1
 1638 1638 l 1,17,-1
 409 1638 l 1,14,-1
409 2457 m 1,18,-1
 409 2867 l 1,19,-1
 819 2867 l 1,20,-1
 819 2457 l 1,21,-1
 409 2457 l 1,18,-1
1228 2457 m 1,22,-1
 1228 2867 l 1,23,-1
 1638 2867 l 1,24,-1
 1638 2457 l 1,25,-1
 1228 2457 l 1,22,-1
EndSplineSet
EndChar

StartChar: igrave
Encoding: 236 236 162
Width: 1638
Flags: W
LayerCount: 2
Fore
SplineSet
409 0 m 1,0,-1
 409 1228 l 1,1,-1
 819 1228 l 1,2,-1
 819 0 l 1,3,-1
 409 0 l 1,0,-1
409 1638 m 1,4,-1
 409 2048 l 1,5,-1
 819 2048 l 1,6,-1
 819 1638 l 1,7,-1
 409 1638 l 1,4,-1
819 2457 m 1,8,-1
 819 2867 l 1,9,-1
 1228 2867 l 1,10,-1
 1228 2457 l 1,11,-1
 819 2457 l 1,8,-1
0 2867 m 1,12,-1
 0 3276 l 1,13,-1
 819 3276 l 1,14,-1
 819 2867 l 1,15,-1
 0 2867 l 1,12,-1
EndSplineSet
EndChar

StartChar: iacute
Encoding: 237 237 163
Width: 1638
Flags: W
LayerCount: 2
Fore
SplineSet
409 0 m 1,0,-1
 409 1228 l 1,1,-1
 819 1228 l 1,2,-1
 819 0 l 1,3,-1
 409 0 l 1,0,-1
409 1638 m 1,4,-1
 409 2048 l 1,5,-1
 819 2048 l 1,6,-1
 819 1638 l 1,7,-1
 409 1638 l 1,4,-1
0 2457 m 1,8,-1
 0 2867 l 1,9,-1
 409 2867 l 1,10,-1
 409 2457 l 1,11,-1
 0 2457 l 1,8,-1
409 2867 m 1,12,-1
 409 3276 l 1,13,-1
 1228 3276 l 1,14,-1
 1228 2867 l 1,15,-1
 409 2867 l 1,12,-1
EndSplineSet
EndChar

StartChar: icircumflex
Encoding: 238 238 164
Width: 1638
Flags: W
LayerCount: 2
Fore
SplineSet
409 0 m 1,0,-1
 409 1228 l 1,1,-1
 819 1228 l 1,2,-1
 819 0 l 1,3,-1
 409 0 l 1,0,-1
409 1638 m 1,4,-1
 409 2048 l 1,5,-1
 819 2048 l 1,6,-1
 819 1638 l 1,7,-1
 409 1638 l 1,4,-1
0 2457 m 1,8,-1
 0 2867 l 1,9,-1
 409 2867 l 1,10,-1
 409 2457 l 1,11,-1
 0 2457 l 1,8,-1
819 2457 m 1,12,-1
 819 2867 l 1,13,-1
 1228 2867 l 1,14,-1
 1228 2457 l 1,15,-1
 819 2457 l 1,12,-1
409 2867 m 1,16,-1
 409 3276 l 1,17,-1
 819 3276 l 1,18,-1
 819 2867 l 1,19,-1
 409 2867 l 1,16,-1
EndSplineSet
EndChar

StartChar: idieresis
Encoding: 239 239 165
Width: 1638
Flags: W
LayerCount: 2
Fore
SplineSet
409 0 m 1,0,-1
 409 1228 l 1,1,-1
 819 1228 l 1,2,-1
 819 0 l 1,3,-1
 409 0 l 1,0,-1
409 1638 m 1,4,-1
 409 2048 l 1,5,-1
 819 2048 l 1,6,-1
 819 1638 l 1,7,-1
 409 1638 l 1,4,-1
0 2457 m 1,8,-1
 0 2867 l 1,9,-1
 409 2867 l 1,10,-1
 409 2457 l 1,11,-1
 0 2457 l 1,8,-1
819 2457 m 1,12,-1
 819 2867 l 1,13,-1
 1228 2867 l 1,14,-1
 1228 2457 l 1,15,-1
 819 2457 l 1,12,-1
EndSplineSet
EndChar

StartChar: ntilde
Encoding: 241 241 166
Width: 2867
Flags: W
LayerCount: 2
Fore
SplineSet
1638 0 m 1,0,-1
 1638 1638 l 1,1,-1
 2048 1638 l 1,2,-1
 2048 0 l 1,3,-1
 1638 0 l 1,0,-1
409 0 m 1,4,-1
 409 2048 l 1,5,-1
 1638 2048 l 1,6,-1
 1638 1638 l 1,7,-1
 819 1638 l 1,8,-1
 819 0 l 1,9,-1
 409 0 l 1,4,-1
0 2457 m 1,10,-1
 0 2867 l 1,11,-1
 409 2867 l 1,12,-1
 409 2457 l 1,13,-1
 0 2457 l 1,10,-1
1228 2457 m 1,14,-1
 1228 2867 l 1,15,-1
 2048 2867 l 1,16,-1
 2048 2457 l 1,17,-1
 1228 2457 l 1,14,-1
409 2867 m 1,18,-1
 409 3276 l 1,19,-1
 1228 3276 l 1,20,-1
 1228 2867 l 1,21,-1
 409 2867 l 1,18,-1
2048 2867 m 1,22,-1
 2048 3276 l 1,23,-1
 2457 3276 l 1,24,-1
 2457 2867 l 1,25,-1
 2048 2867 l 1,22,-1
EndSplineSet
EndChar

StartChar: ograve
Encoding: 242 242 167
Width: 2457
Flags: W
LayerCount: 2
Fore
SplineSet
409 0 m 1,0,-1
 409 409 l 1,1,-1
 1638 409 l 1,2,-1
 1638 0 l 1,3,-1
 409 0 l 1,0,-1
0 409 m 1,4,-1
 0 1638 l 1,5,-1
 409 1638 l 1,6,-1
 409 409 l 1,7,-1
 0 409 l 1,4,-1
1638 409 m 1,8,-1
 1638 1638 l 1,9,-1
 2048 1638 l 1,10,-1
 2048 409 l 1,11,-1
 1638 409 l 1,8,-1
409 1638 m 1,12,-1
 409 2048 l 1,13,-1
 1638 2048 l 1,14,-1
 1638 1638 l 1,15,-1
 409 1638 l 1,12,-1
1228 2457 m 1,16,-1
 1228 2867 l 1,17,-1
 1638 2867 l 1,18,-1
 1638 2457 l 1,19,-1
 1228 2457 l 1,16,-1
409 2867 m 1,20,-1
 409 3276 l 1,21,-1
 1228 3276 l 1,22,-1
 1228 2867 l 1,23,-1
 409 2867 l 1,20,-1
EndSplineSet
EndChar

StartChar: oacute
Encoding: 243 243 168
Width: 2457
Flags: W
LayerCount: 2
Fore
SplineSet
409 0 m 1,0,-1
 409 409 l 1,1,-1
 1638 409 l 1,2,-1
 1638 0 l 1,3,-1
 409 0 l 1,0,-1
0 409 m 1,4,-1
 0 1638 l 1,5,-1
 409 1638 l 1,6,-1
 409 409 l 1,7,-1
 0 409 l 1,4,-1
1638 409 m 1,8,-1
 1638 1638 l 1,9,-1
 2048 1638 l 1,10,-1
 2048 409 l 1,11,-1
 1638 409 l 1,8,-1
409 1638 m 1,12,-1
 409 2048 l 1,13,-1
 1638 2048 l 1,14,-1
 1638 1638 l 1,15,-1
 409 1638 l 1,12,-1
409 2457 m 1,16,-1
 409 2867 l 1,17,-1
 819 2867 l 1,18,-1
 819 2457 l 1,19,-1
 409 2457 l 1,16,-1
819 2867 m 1,20,-1
 819 3276 l 1,21,-1
 1638 3276 l 1,22,-1
 1638 2867 l 1,23,-1
 819 2867 l 1,20,-1
EndSplineSet
EndChar

StartChar: ocircumflex
Encoding: 244 244 169
Width: 2457
Flags: W
LayerCount: 2
Fore
SplineSet
409 0 m 1,0,-1
 409 409 l 1,1,-1
 1638 409 l 1,2,-1
 1638 0 l 1,3,-1
 409 0 l 1,0,-1
0 409 m 1,4,-1
 0 1638 l 1,5,-1
 409 1638 l 1,6,-1
 409 409 l 1,7,-1
 0 409 l 1,4,-1
1638 409 m 1,8,-1
 1638 1638 l 1,9,-1
 2048 1638 l 1,10,-1
 2048 409 l 1,11,-1
 1638 409 l 1,8,-1
409 1638 m 1,12,-1
 409 2048 l 1,13,-1
 1638 2048 l 1,14,-1
 1638 1638 l 1,15,-1
 409 1638 l 1,12,-1
409 2457 m 1,16,-1
 409 2867 l 1,17,-1
 819 2867 l 1,18,-1
 819 2457 l 1,19,-1
 409 2457 l 1,16,-1
1228 2457 m 1,20,-1
 1228 2867 l 1,21,-1
 1638 2867 l 1,22,-1
 1638 2457 l 1,23,-1
 1228 2457 l 1,20,-1
819 2867 m 1,24,-1
 819 3276 l 1,25,-1
 1228 3276 l 1,26,-1
 1228 2867 l 1,27,-1
 819 2867 l 1,24,-1
EndSplineSet
EndChar

StartChar: otilde
Encoding: 245 245 170
Width: 2867
Flags: W
LayerCount: 2
Fore
SplineSet
409 0 m 1,0,-1
 409 409 l 1,1,-1
 1638 409 l 1,2,-1
 1638 0 l 1,3,-1
 409 0 l 1,0,-1
0 409 m 1,4,-1
 0 1638 l 1,5,-1
 409 1638 l 1,6,-1
 409 409 l 1,7,-1
 0 409 l 1,4,-1
1638 409 m 1,8,-1
 1638 1638 l 1,9,-1
 2048 1638 l 1,10,-1
 2048 409 l 1,11,-1
 1638 409 l 1,8,-1
409 1638 m 1,12,-1
 409 2048 l 1,13,-1
 1638 2048 l 1,14,-1
 1638 1638 l 1,15,-1
 409 1638 l 1,12,-1
0 2457 m 1,16,-1
 0 2867 l 1,17,-1
 409 2867 l 1,18,-1
 409 2457 l 1,19,-1
 0 2457 l 1,16,-1
1228 2457 m 1,20,-1
 1228 2867 l 1,21,-1
 2048 2867 l 1,22,-1
 2048 2457 l 1,23,-1
 1228 2457 l 1,20,-1
409 2867 m 1,24,-1
 409 3276 l 1,25,-1
 1228 3276 l 1,26,-1
 1228 2867 l 1,27,-1
 409 2867 l 1,24,-1
2048 2867 m 1,28,-1
 2048 3276 l 1,29,-1
 2457 3276 l 1,30,-1
 2457 2867 l 1,31,-1
 2048 2867 l 1,28,-1
EndSplineSet
EndChar

StartChar: odieresis
Encoding: 246 246 171
Width: 2457
Flags: W
LayerCount: 2
Fore
SplineSet
409 0 m 1,0,-1
 409 409 l 1,1,-1
 1638 409 l 1,2,-1
 1638 0 l 1,3,-1
 409 0 l 1,0,-1
0 409 m 1,4,-1
 0 1638 l 1,5,-1
 409 1638 l 1,6,-1
 409 409 l 1,7,-1
 0 409 l 1,4,-1
1638 409 m 1,8,-1
 1638 1638 l 1,9,-1
 2048 1638 l 1,10,-1
 2048 409 l 1,11,-1
 1638 409 l 1,8,-1
409 1638 m 1,12,-1
 409 2048 l 1,13,-1
 1638 2048 l 1,14,-1
 1638 1638 l 1,15,-1
 409 1638 l 1,12,-1
409 2457 m 1,16,-1
 409 2867 l 1,17,-1
 819 2867 l 1,18,-1
 819 2457 l 1,19,-1
 409 2457 l 1,16,-1
1228 2457 m 1,20,-1
 1228 2867 l 1,21,-1
 1638 2867 l 1,22,-1
 1638 2457 l 1,23,-1
 1228 2457 l 1,20,-1
EndSplineSet
EndChar

StartChar: divide
Encoding: 247 247 172
Width: 2457
Flags: W
LayerCount: 2
Fore
SplineSet
819 819 m 1,0,-1
 819 1228 l 1,1,-1
 1228 1228 l 1,2,-1
 1228 819 l 1,3,-1
 819 819 l 1,0,-1
0 1638 m 1,4,-1
 0 2048 l 1,5,-1
 2048 2048 l 1,6,-1
 2048 1638 l 1,7,-1
 0 1638 l 1,4,-1
819 2457 m 1,8,-1
 819 2867 l 1,9,-1
 1228 2867 l 1,10,-1
 1228 2457 l 1,11,-1
 819 2457 l 1,8,-1
EndSplineSet
EndChar

StartChar: oslash
Encoding: 248 248 173
Width: 2457
Flags: W
LayerCount: 2
Fore
SplineSet
819 819 m 1,0,-1
 819 1228 l 1,1,-1
 1228 1228 l 1,2,-1
 1228 819 l 1,3,-1
 819 819 l 1,0,-1
409 0 m 1,4,-1
 409 409 l 1,5,-1
 0 409 l 1,6,-1
 0 1638 l 1,7,-1
 409 1638 l 1,8,-1
 409 819 l 1,9,-1
 819 819 l 1,10,-1
 819 409 l 1,11,-1
 1638 409 l 1,12,-1
 1638 0 l 1,13,-1
 409 0 l 1,4,-1
1638 409 m 1,14,-1
 1638 1228 l 1,15,-1
 1228 1228 l 1,16,-1
 1228 1638 l 1,17,-1
 409 1638 l 1,18,-1
 409 2048 l 1,19,-1
 1638 2048 l 1,20,-1
 1638 1638 l 1,21,-1
 2048 1638 l 1,22,-1
 2048 409 l 1,23,-1
 1638 409 l 1,14,-1
EndSplineSet
EndChar

StartChar: ugrave
Encoding: 249 249 174
Width: 2457
Flags: W
LayerCount: 2
Fore
SplineSet
409 0 m 1,0,-1
 409 409 l 1,1,-1
 1228 409 l 1,2,-1
 1228 0 l 1,3,-1
 409 0 l 1,0,-1
1638 0 m 1,4,-1
 1638 409 l 1,5,-1
 2048 409 l 1,6,-1
 2048 0 l 1,7,-1
 1638 0 l 1,4,-1
0 409 m 1,8,-1
 0 2048 l 1,9,-1
 409 2048 l 1,10,-1
 409 409 l 1,11,-1
 0 409 l 1,8,-1
1228 409 m 1,12,-1
 1228 2048 l 1,13,-1
 1638 2048 l 1,14,-1
 1638 409 l 1,15,-1
 1228 409 l 1,12,-1
1228 2457 m 1,16,-1
 1228 2867 l 1,17,-1
 1638 2867 l 1,18,-1
 1638 2457 l 1,19,-1
 1228 2457 l 1,16,-1
409 2867 m 1,20,-1
 409 3276 l 1,21,-1
 1228 3276 l 1,22,-1
 1228 2867 l 1,23,-1
 409 2867 l 1,20,-1
EndSplineSet
EndChar

StartChar: uacute
Encoding: 250 250 175
Width: 2457
Flags: W
LayerCount: 2
Fore
SplineSet
409 0 m 1,0,-1
 409 409 l 1,1,-1
 1228 409 l 1,2,-1
 1228 0 l 1,3,-1
 409 0 l 1,0,-1
1638 0 m 1,4,-1
 1638 409 l 1,5,-1
 2048 409 l 1,6,-1
 2048 0 l 1,7,-1
 1638 0 l 1,4,-1
0 409 m 1,8,-1
 0 2048 l 1,9,-1
 409 2048 l 1,10,-1
 409 409 l 1,11,-1
 0 409 l 1,8,-1
1228 409 m 1,12,-1
 1228 2048 l 1,13,-1
 1638 2048 l 1,14,-1
 1638 409 l 1,15,-1
 1228 409 l 1,12,-1
409 2457 m 1,16,-1
 409 2867 l 1,17,-1
 819 2867 l 1,18,-1
 819 2457 l 1,19,-1
 409 2457 l 1,16,-1
819 2867 m 1,20,-1
 819 3276 l 1,21,-1
 1638 3276 l 1,22,-1
 1638 2867 l 1,23,-1
 819 2867 l 1,20,-1
EndSplineSet
EndChar

StartChar: ucircumflex
Encoding: 251 251 176
Width: 2457
Flags: W
LayerCount: 2
Fore
SplineSet
409 0 m 1,0,-1
 409 409 l 1,1,-1
 1228 409 l 1,2,-1
 1228 0 l 1,3,-1
 409 0 l 1,0,-1
1638 0 m 1,4,-1
 1638 409 l 1,5,-1
 2048 409 l 1,6,-1
 2048 0 l 1,7,-1
 1638 0 l 1,4,-1
0 409 m 1,8,-1
 0 2048 l 1,9,-1
 409 2048 l 1,10,-1
 409 409 l 1,11,-1
 0 409 l 1,8,-1
1228 409 m 1,12,-1
 1228 2048 l 1,13,-1
 1638 2048 l 1,14,-1
 1638 409 l 1,15,-1
 1228 409 l 1,12,-1
409 2457 m 1,16,-1
 409 2867 l 1,17,-1
 819 2867 l 1,18,-1
 819 2457 l 1,19,-1
 409 2457 l 1,16,-1
1228 2457 m 1,20,-1
 1228 2867 l 1,21,-1
 1638 2867 l 1,22,-1
 1638 2457 l 1,23,-1
 1228 2457 l 1,20,-1
819 2867 m 1,24,-1
 819 3276 l 1,25,-1
 1228 3276 l 1,26,-1
 1228 2867 l 1,27,-1
 819 2867 l 1,24,-1
EndSplineSet
EndChar

StartChar: udieresis
Encoding: 252 252 177
Width: 2457
Flags: W
LayerCount: 2
Fore
SplineSet
409 0 m 1,0,-1
 409 409 l 1,1,-1
 1228 409 l 1,2,-1
 1228 0 l 1,3,-1
 409 0 l 1,0,-1
1638 0 m 1,4,-1
 1638 409 l 1,5,-1
 2048 409 l 1,6,-1
 2048 0 l 1,7,-1
 1638 0 l 1,4,-1
0 409 m 1,8,-1
 0 2048 l 1,9,-1
 409 2048 l 1,10,-1
 409 409 l 1,11,-1
 0 409 l 1,8,-1
1228 409 m 1,12,-1
 1228 2048 l 1,13,-1
 1638 2048 l 1,14,-1
 1638 409 l 1,15,-1
 1228 409 l 1,12,-1
409 2457 m 1,16,-1
 409 2867 l 1,17,-1
 819 2867 l 1,18,-1
 819 2457 l 1,19,-1
 409 2457 l 1,16,-1
1228 2457 m 1,20,-1
 1228 2867 l 1,21,-1
 1638 2867 l 1,22,-1
 1638 2457 l 1,23,-1
 1228 2457 l 1,20,-1
EndSplineSet
EndChar

StartChar: yacute
Encoding: 253 253 178
Width: 2457
Flags: W
LayerCount: 2
Fore
SplineSet
0 -819 m 1,0,-1
 0 -409 l 1,1,-1
 1638 -409 l 1,2,-1
 1638 -819 l 1,3,-1
 0 -819 l 1,0,-1
0 409 m 1,4,-1
 0 2048 l 1,5,-1
 409 2048 l 1,6,-1
 409 409 l 1,7,-1
 0 409 l 1,4,-1
1638 -409 m 1,8,-1
 1638 0 l 1,9,-1
 409 0 l 1,10,-1
 409 409 l 1,11,-1
 1638 409 l 1,12,-1
 1638 2048 l 1,13,-1
 2048 2048 l 1,14,-1
 2048 -409 l 1,15,-1
 1638 -409 l 1,8,-1
409 2457 m 1,16,-1
 409 2867 l 1,17,-1
 819 2867 l 1,18,-1
 819 2457 l 1,19,-1
 409 2457 l 1,16,-1
819 2867 m 1,20,-1
 819 3276 l 1,21,-1
 1638 3276 l 1,22,-1
 1638 2867 l 1,23,-1
 819 2867 l 1,20,-1
EndSplineSet
EndChar

StartChar: thorn
Encoding: 254 254 179
Width: 2457
Flags: W
LayerCount: 2
Fore
SplineSet
1638 819 m 1,0,-1
 1638 2048 l 1,1,-1
 2048 2048 l 1,2,-1
 2048 819 l 1,3,-1
 1638 819 l 1,0,-1
0 0 m 1,4,-1
 0 4096 l 1,5,-1
 409 4096 l 1,6,-1
 409 2457 l 1,7,-1
 1638 2457 l 1,8,-1
 1638 2048 l 1,9,-1
 409 2048 l 1,10,-1
 409 819 l 1,11,-1
 1638 819 l 1,12,-1
 1638 409 l 1,13,-1
 409 409 l 1,14,-1
 409 0 l 1,15,-1
 0 0 l 1,4,-1
EndSplineSet
EndChar

StartChar: ydieresis
Encoding: 255 255 180
Width: 2457
Flags: W
LayerCount: 2
Fore
SplineSet
0 -819 m 1,0,-1
 0 -409 l 1,1,-1
 1638 -409 l 1,2,-1
 1638 -819 l 1,3,-1
 0 -819 l 1,0,-1
0 409 m 1,4,-1
 0 2048 l 1,5,-1
 409 2048 l 1,6,-1
 409 409 l 1,7,-1
 0 409 l 1,4,-1
1638 -409 m 1,8,-1
 1638 0 l 1,9,-1
 409 0 l 1,10,-1
 409 409 l 1,11,-1
 1638 409 l 1,12,-1
 1638 2048 l 1,13,-1
 2048 2048 l 1,14,-1
 2048 -409 l 1,15,-1
 1638 -409 l 1,8,-1
409 2457 m 1,16,-1
 409 2867 l 1,17,-1
 819 2867 l 1,18,-1
 819 2457 l 1,19,-1
 409 2457 l 1,16,-1
1228 2457 m 1,20,-1
 1228 2867 l 1,21,-1
 1638 2867 l 1,22,-1
 1638 2457 l 1,23,-1
 1228 2457 l 1,20,-1
EndSplineSet
EndChar

StartChar: Ydieresis
Encoding: 376 376 181
Width: 2457
Flags: W
LayerCount: 2
Fore
SplineSet
819 0 m 1,0,-1
 819 1638 l 1,1,-1
 1228 1638 l 1,2,-1
 1228 0 l 1,3,-1
 819 0 l 1,0,-1
409 1638 m 1,4,-1
 409 2457 l 1,5,-1
 819 2457 l 1,6,-1
 819 1638 l 1,7,-1
 409 1638 l 1,4,-1
1228 1638 m 1,8,-1
 1228 2457 l 1,9,-1
 1638 2457 l 1,10,-1
 1638 1638 l 1,11,-1
 1228 1638 l 1,8,-1
0 2457 m 1,12,-1
 0 3276 l 1,13,-1
 409 3276 l 1,14,-1
 409 2457 l 1,15,-1
 0 2457 l 1,12,-1
1638 2457 m 1,16,-1
 1638 3276 l 1,17,-1
 2048 3276 l 1,18,-1
 2048 2457 l 1,19,-1
 1638 2457 l 1,16,-1
409 3686 m 1,20,-1
 409 4096 l 1,21,-1
 819 4096 l 1,22,-1
 819 3686 l 1,23,-1
 409 3686 l 1,20,-1
1228 3686 m 1,24,-1
 1228 4096 l 1,25,-1
 1638 4096 l 1,26,-1
 1638 3686 l 1,27,-1
 1228 3686 l 1,24,-1
EndSplineSet
EndChar

StartChar: quoteleft
Encoding: 8216 8216 182
Width: 1228
Flags: W
LayerCount: 2
Fore
SplineSet
0 2048 m 1,0,-1
 0 3276 l 1,1,-1
 409 3276 l 1,2,-1
 409 2867 l 1,3,-1
 819 2867 l 1,4,-1
 819 2048 l 1,5,-1
 0 2048 l 1,0,-1
409 3276 m 1,6,-1
 409 3686 l 1,7,-1
 819 3686 l 1,8,-1
 819 3276 l 1,9,-1
 409 3276 l 1,6,-1
EndSplineSet
EndChar

StartChar: quoteright
Encoding: 8217 8217 183
Width: 1228
Flags: W
LayerCount: 2
Fore
SplineSet
0 2048 m 1,0,-1
 0 2867 l 1,1,-1
 409 2867 l 1,2,-1
 409 3276 l 1,3,-1
 819 3276 l 1,4,-1
 819 2048 l 1,5,-1
 0 2048 l 1,0,-1
0 3276 m 1,6,-1
 0 3686 l 1,7,-1
 409 3686 l 1,8,-1
 409 3276 l 1,9,-1
 0 3276 l 1,6,-1
EndSplineSet
EndChar

StartChar: quotedblleft
Encoding: 8220 8220 184
Width: 2457
Flags: W
LayerCount: 2
Fore
SplineSet
0 2048 m 1,0,-1
 0 3276 l 1,1,-1
 409 3276 l 1,2,-1
 409 2867 l 1,3,-1
 819 2867 l 1,4,-1
 819 2048 l 1,5,-1
 0 2048 l 1,0,-1
1228 2048 m 1,6,-1
 1228 3276 l 1,7,-1
 1638 3276 l 1,8,-1
 1638 2867 l 1,9,-1
 2048 2867 l 1,10,-1
 2048 2048 l 1,11,-1
 1228 2048 l 1,6,-1
409 3276 m 1,12,-1
 409 3686 l 1,13,-1
 819 3686 l 1,14,-1
 819 3276 l 1,15,-1
 409 3276 l 1,12,-1
1638 3276 m 1,16,-1
 1638 3686 l 1,17,-1
 2048 3686 l 1,18,-1
 2048 3276 l 1,19,-1
 1638 3276 l 1,16,-1
EndSplineSet
EndChar

StartChar: quotedblright
Encoding: 8221 8221 185
Width: 2457
Flags: W
LayerCount: 2
Fore
SplineSet
0 2048 m 1,0,-1
 0 2457 l 1,1,-1
 409 2457 l 1,2,-1
 409 2048 l 1,3,-1
 0 2048 l 1,0,-1
1228 2048 m 1,4,-1
 1228 2457 l 1,5,-1
 1638 2457 l 1,6,-1
 1638 2048 l 1,7,-1
 1228 2048 l 1,4,-1
409 2457 m 1,8,-1
 409 2867 l 1,9,-1
 0 2867 l 1,10,-1
 0 3686 l 1,11,-1
 819 3686 l 1,12,-1
 819 2457 l 1,13,-1
 409 2457 l 1,8,-1
1638 2457 m 1,14,-1
 1638 2867 l 1,15,-1
 1228 2867 l 1,16,-1
 1228 3686 l 1,17,-1
 2048 3686 l 1,18,-1
 2048 2457 l 1,19,-1
 1638 2457 l 1,14,-1
EndSplineSet
EndChar

StartChar: bullet
Encoding: 8226 8226 186
Width: 1638
Flags: W
LayerCount: 2
Fore
SplineSet
409 1228 m 1,0,-1
 409 1638 l 1,1,-1
 0 1638 l 1,2,-1
 0 2048 l 1,3,-1
 409 2048 l 1,4,-1
 409 2457 l 1,5,-1
 819 2457 l 1,6,-1
 819 2048 l 1,7,-1
 1228 2048 l 1,8,-1
 1228 1638 l 1,9,-1
 819 1638 l 1,10,-1
 819 1228 l 1,11,-1
 409 1228 l 1,0,-1
EndSplineSet
EndChar

StartChar: ellipsis
Encoding: 8230 8230 187
Width: 2457
Flags: W
LayerCount: 2
Fore
SplineSet
0 0 m 1,0,-1
 0 409 l 1,1,-1
 409 409 l 1,2,-1
 409 0 l 1,3,-1
 0 0 l 1,0,-1
819 0 m 1,4,-1
 819 409 l 1,5,-1
 1228 409 l 1,6,-1
 1228 0 l 1,7,-1
 819 0 l 1,4,-1
1638 0 m 1,8,-1
 1638 409 l 1,9,-1
 2048 409 l 1,10,-1
 2048 0 l 1,11,-1
 1638 0 l 1,8,-1
EndSplineSet
EndChar

StartChar: Euro
Encoding: 8364 8364 188
Width: 2457
Flags: W
LayerCount: 2
Fore
SplineSet
409 0 m 1,0,-1
 409 409 l 1,1,-1
 1638 409 l 1,2,-1
 1638 0 l 1,3,-1
 409 0 l 1,0,-1
1638 409 m 1,4,-1
 1638 819 l 1,5,-1
 2048 819 l 1,6,-1
 2048 409 l 1,7,-1
 1638 409 l 1,4,-1
0 409 m 1,8,-1
 0 819 l 1,9,-1
 -409 819 l 1,10,-1
 -409 1228 l 1,11,-1
 0 1228 l 1,12,-1
 0 1638 l 1,13,-1
 -409 1638 l 1,14,-1
 -409 2048 l 1,15,-1
 0 2048 l 1,16,-1
 0 2867 l 1,17,-1
 409 2867 l 1,18,-1
 409 2048 l 1,19,-1
 819 2048 l 1,20,-1
 819 1638 l 1,21,-1
 409 1638 l 1,22,-1
 409 1228 l 1,23,-1
 819 1228 l 1,24,-1
 819 819 l 1,25,-1
 409 819 l 1,26,-1
 409 409 l 1,27,-1
 0 409 l 1,8,-1
1638 2457 m 1,28,-1
 1638 2867 l 1,29,-1
 2048 2867 l 1,30,-1
 2048 2457 l 1,31,-1
 1638 2457 l 1,28,-1
409 2867 m 1,32,-1
 409 3276 l 1,33,-1
 1638 3276 l 1,34,-1
 1638 2867 l 1,35,-1
 409 2867 l 1,32,-1
EndSplineSet
EndChar
